<svg width="48" height="32" viewBox="0 0 48 32" fill="none" xmlns="http://www.w3.org/2000/svg">
<mask id="mask0_0_157" style="mask-type:alpha" maskUnits="userSpaceOnUse" x="0" y="0" width="48" height="32">
<rect width="48" height="32" rx="5" fill="#D9D9D9"/>
</mask>
<g mask="url(#mask0_0_157)">
<rect y="10" width="48" height="12" fill="#E94B35"/>
<rect width="48" height="10" fill="#2C97DE"/>
<rect y="22" width="48" height="10" fill="#1AAF5D"/>
<path fill-rule="evenodd" clip-rule="evenodd" d="M30.1959 17.9432L28.7771 17.27L28.2519 18.75L27.7247 17.2707L26.3068 17.9459L26.98 16.5271L25.5 16.0019L26.9793 15.4747L26.3041 14.0568L27.7229 14.73L28.2481 13.25L28.7753 14.7293L30.1932 14.0541L29.52 15.4729L31 15.9981L29.5207 16.5253L30.1959 17.9432V17.9432Z" fill="white"/>
<path fill-rule="evenodd" clip-rule="evenodd" d="M26.9977 11.7552C26.5292 11.5899 26.0251 11.5 25.5 11.5C23.0147 11.5 21 13.5147 21 16C21 18.4853 23.0147 20.5 25.5 20.5C26.0251 20.5 26.5292 20.4101 26.9977 20.2448C26.0471 21.029 24.8285 21.5 23.5 21.5C20.4624 21.5 18 19.0376 18 16C18 12.9624 20.4624 10.5 23.5 10.5C24.8285 10.5 26.0471 10.971 26.9977 11.7552Z" fill="white"/>
</g>
</svg>
