<svg width="48" height="32" viewBox="0 0 48 32" fill="none" xmlns="http://www.w3.org/2000/svg">
<rect width="48" height="32" rx="5" fill="#E94B35"/>
<path fill-rule="evenodd" clip-rule="evenodd" d="M9.5 15.5L5.09161 18.5676L6.64683 13.4271L2.36708 10.1824L7.73664 10.0729L9.5 5L11.2634 10.0729L16.6329 10.1824L12.3532 13.4271L13.9084 18.5676L9.5 15.5Z" fill="#F2C500"/>
<path fill-rule="evenodd" clip-rule="evenodd" d="M17.7264 6.75176L16.3419 7.1184L17.2005 5.97209L16.424 4.76869L17.7795 5.231L18.684 4.12062L18.6632 5.55266L19.9988 6.06981L18.6304 6.49254L18.5513 7.92253L17.7264 6.75176Z" fill="#F2C500"/>
<path fill-rule="evenodd" clip-rule="evenodd" d="M22.4 10.5949L21.7909 11.8911L21.4647 10.4966L20.0437 10.3179L21.2692 9.57667L21 8.17001L22.0836 9.10645L23.3383 8.41577L22.7825 9.73573L23.8271 10.7155L22.4 10.5949Z" fill="#F2C500"/>
<path fill-rule="evenodd" clip-rule="evenodd" d="M21.8611 15.8848L20.5613 16.4862L21.2078 15.2082L20.2341 14.158L21.6493 14.3779L22.3473 13.1273L22.5755 14.5412L23.9805 14.8186L22.7064 15.4725L22.8767 16.8945L21.8611 15.8848Z" fill="#F2C500"/>
<path fill-rule="evenodd" clip-rule="evenodd" d="M17.7264 19.7518L16.3419 20.1184L17.2005 18.9721L16.424 17.7687L17.7795 18.231L18.684 17.1206L18.6632 18.5527L19.9988 19.0698L18.6304 19.4925L18.5513 20.9225L17.7264 19.7518Z" fill="#F2C500"/>
</svg>
