<svg width="48" height="32" viewBox="0 0 48 32" fill="none" xmlns="http://www.w3.org/2000/svg">
<mask id="mask0_0_769" style="mask-type:alpha" maskUnits="userSpaceOnUse" x="0" y="0" width="48" height="32">
<rect width="48" height="32" rx="5" fill="#D9D9D9"/>
</mask>
<g mask="url(#mask0_0_769)">
<rect y="10" width="48" height="12" fill="white"/>
<rect width="48" height="10" fill="#E94B35"/>
<rect y="22" width="48" height="10" fill="black"/>
<path d="M28.026 19.7495L28.1507 19.69L27.8662 13.275C27.8454 12.7895 27.617 12.5353 27.236 12.5081C26.9404 12.4871 26.5653 12.6054 26.1821 12.8139C25.5772 13.1831 24.8699 13.2157 24.0574 12.9441C23.1975 13.2157 22.4901 13.183 21.8885 12.8158C21.5021 12.6054 21.1271 12.4871 20.8315 12.5081C20.4505 12.5353 20.2221 12.7895 20.2012 13.2751L19.9166 19.69L20.0406 19.75L22.4005 17.7115H23.5703L23.2887 19.2953L23.4727 19.4706L23.6654 19.3351L23.9035 17.7115H23.9497L23.8494 19.3351L24.0335 19.5582L24.2176 19.3351L24.1174 17.7115H24.1636L24.4018 19.3351L24.5942 19.4706L24.7784 19.2953L24.4968 17.7115H25.721L28.026 19.7495Z" fill="#C09300"/>
<path fill-rule="evenodd" clip-rule="evenodd" d="M20.8422 12.6578C21.1032 12.6392 21.4533 12.7497 21.8135 12.9457C22.4533 13.3363 23.206 13.3711 24.0574 13.0864C24.8614 13.3711 25.6141 13.3363 26.2571 12.9439C26.6141 12.7497 26.9643 12.6392 27.2253 12.6578C27.5174 12.6786 27.6868 12.8569 27.714 13.2402C27.5786 13.1561 27.3929 13.0551 27.3135 13.0551L25.4426 14.2751H22.6066L20.7357 13.0551C20.66 13.0551 20.4876 13.147 20.3543 13.2284C20.3842 12.8532 20.5531 12.6784 20.8422 12.6578Z" fill="white"/>
<path d="M22.7061 15.7755L22.833 15.7457L23.9223 16.9691L23.2696 19.7982L23.1857 19.8555L21.6542 19.6323L21.5931 19.5368L22.7061 15.7755Z" fill="#C09300"/>
<path d="M25.3606 15.7754L26.4736 19.5368L26.4125 19.6323L24.881 19.8555L24.7971 19.7982L24.1625 16.9012L25.2337 15.7457L25.3606 15.7754Z" fill="#C09300"/>
<path fill-rule="evenodd" clip-rule="evenodd" d="M21.7615 19.4964L23.1398 19.6973L23.7942 17.0032L22.8125 15.9443L21.7615 19.4964Z" fill="white"/>
<path fill-rule="evenodd" clip-rule="evenodd" d="M24.2906 16.9354L24.9277 19.6972L26.3052 19.4964L25.2532 15.9412L24.2906 16.9354Z" fill="white"/>
<path d="M27.1647 19.8767C27.2531 19.8832 27.32 19.9377 27.4044 20.0405C27.4161 20.0549 27.4161 20.0549 27.4273 20.0685C27.4852 20.1382 27.512 20.1554 27.5469 20.1467L27.565 20.2945C27.5377 20.2945 27.5319 20.3025 27.5133 20.3754C27.5043 20.4114 27.4991 20.4312 27.4921 20.453C27.4599 20.5535 27.4063 20.6256 27.3129 20.6694C27.3049 20.9072 27.2351 21.0055 26.9819 21.0489C26.346 21.2198 25.2541 21.3145 24.0333 21.3145C22.8116 21.3145 21.7205 21.2197 21.1003 21.0505C20.8345 21.0059 20.7622 20.9075 20.754 20.6694C20.6606 20.6256 20.607 20.5535 20.5748 20.453C20.5678 20.4312 20.5625 20.4114 20.5535 20.3754C20.5349 20.3025 20.5291 20.2945 20.5018 20.2945L20.52 20.1467C20.5548 20.1554 20.5816 20.1382 20.6394 20.0685C20.6507 20.0549 20.6507 20.0549 20.6625 20.0405C20.7468 19.9377 20.8137 19.8832 20.9022 19.8767C20.9251 19.7466 21.0053 19.6566 21.1245 19.6114C21.0871 19.5393 21.0937 19.4578 21.1438 19.3859C21.2093 19.2919 21.335 19.2373 21.4529 19.2631C21.7654 19.3593 22.1262 19.44 22.4614 19.4834C22.9459 19.545 23.2904 19.5646 23.5734 19.5307C23.738 19.5307 23.8567 19.6861 23.8269 19.8254C23.9025 19.8283 23.9695 19.831 24.0333 19.8337C24.1044 19.8337 24.1741 19.8335 24.2426 19.833C24.208 19.6921 24.331 19.5308 24.5116 19.5313C24.7781 19.5646 25.1216 19.545 25.6057 19.4835C25.941 19.44 26.3018 19.3593 26.6204 19.2614C26.7322 19.2373 26.8579 19.2919 26.9234 19.3859C26.9735 19.4579 26.9801 19.5394 26.9426 19.6115C27.0617 19.6567 27.1419 19.7467 27.1647 19.8767Z" fill="#C09300"/>
<path fill-rule="evenodd" clip-rule="evenodd" d="M27.3118 20.1642C27.2999 20.1497 27.2999 20.1497 27.2884 20.1357C27.212 20.0426 27.1736 20.0174 27.1114 20.0301L27.0214 19.9566C27.0214 19.8175 26.9419 19.7449 26.7931 19.7304L26.7592 19.593C26.8217 19.552 26.8293 19.5133 26.8003 19.4716C26.7683 19.4257 26.7026 19.3971 26.6583 19.4064C26.338 19.505 25.9691 19.5876 25.6248 19.6322C25.1286 19.6953 24.7756 19.7155 24.5023 19.6807C24.4011 19.6807 24.3487 19.7936 24.4275 19.8431L24.3885 19.9816C24.2737 19.983 24.1555 19.9837 24.0301 19.9837C23.9295 19.9793 23.8247 19.9753 23.6928 19.9706L23.65 19.836C23.7151 19.7864 23.6628 19.6807 23.5824 19.6801C23.2927 19.7154 22.9387 19.6953 22.4423 19.6322C22.0981 19.5876 21.7291 19.505 21.415 19.408C21.3646 19.3971 21.2989 19.4257 21.2669 19.4716C21.2378 19.5134 21.2454 19.552 21.3078 19.593L21.2739 19.7303C21.125 19.7449 21.0455 19.8174 21.0455 19.9566L20.9554 20.0301C20.8932 20.0174 20.8548 20.0426 20.7784 20.1357C20.7668 20.1498 20.7668 20.1498 20.7549 20.1643C20.725 20.2003 20.6974 20.2293 20.67 20.2512C20.681 20.2757 20.6902 20.3047 20.6988 20.3382C20.7078 20.374 20.712 20.3897 20.7176 20.4072C20.7416 20.4821 20.7761 20.5227 20.8508 20.5464L20.9031 20.6179C20.9031 20.8285 20.9266 20.8692 21.1324 20.9041C21.7442 21.0706 22.8238 21.1645 24.0333 21.1645C25.242 21.1645 26.3225 21.0708 26.9497 20.9026C27.1408 20.8696 27.1637 20.8287 27.1637 20.6179L27.216 20.5464C27.2907 20.5227 27.3252 20.4821 27.3492 20.4072C27.3548 20.3897 27.359 20.374 27.368 20.3382C27.3766 20.3047 27.3858 20.2757 27.3967 20.2512C27.3693 20.2293 27.3417 20.2002 27.3118 20.1642Z" fill="white"/>
<path d="M24.0322 17.5405C25.9363 16.1458 25.773 14.1026 25.773 14.1026C25.7228 14.1122 25.675 14.117 25.6248 14.117C25.2254 14.117 24.2727 13.8993 24.0505 13.6229C23.8124 13.8731 22.8389 14.117 22.442 14.117C22.3918 14.117 22.3415 14.1122 22.2938 14.1026C22.2938 14.1026 22.128 16.1457 24.0321 17.5405H24.0322Z" fill="white"/>
<path d="M23.4138 14.0851C23.0713 14.1876 22.7005 14.2535 22.4951 14.2535C22.4784 14.2535 22.4622 14.2511 22.4459 14.2483C22.445 14.3256 22.4499 14.4064 22.455 14.4792C22.4738 14.7514 22.5229 15.0236 22.599 15.2865C22.7603 15.8434 23.0369 16.3438 23.4138 16.7743V14.0851L23.4138 14.0851Z" fill="#C09300"/>
<path d="M24.6167 14.0801V16.8162C25.013 16.3761 25.3011 15.8603 25.468 15.285C25.5442 15.0221 25.593 14.7499 25.612 14.4777C25.617 14.4063 25.6217 14.3277 25.6211 14.252C25.6047 14.253 25.5885 14.2537 25.5719 14.2537C25.3543 14.2537 24.9641 14.1887 24.6167 14.0801L24.6167 14.0801Z" fill="#C09300"/>
<path d="M24.8335 13.3788C24.8444 13.443 24.8312 13.5013 24.7472 13.4966C24.6111 13.4846 24.3616 13.4188 24.2602 13.2996C24.2339 13.3237 24.0893 13.5801 24.075 13.5981L23.7886 13.301C23.6891 13.4642 23.242 13.5981 23.242 13.5981L23.3176 13.3206C23.3027 13.3277 23.1277 13.4006 23.0602 13.4188C22.9938 13.4368 22.6912 13.4642 22.635 13.4642C22.635 13.4642 23.242 12.8358 23.3854 12.3644C23.5216 11.9352 23.5382 11.5433 23.4487 11.4203C23.3211 11.244 23.201 11.1916 23.0747 11.2879C23.0069 11.3395 22.9372 11.3004 22.9163 11.2291C22.9057 11.1931 22.904 11.1442 22.9098 11.0906C22.9229 10.9678 22.9673 10.8549 23.0416 10.8077C23.1611 10.7318 23.3815 10.7342 23.6564 10.7935C23.686 10.736 23.7488 10.7049 23.836 10.709C24.1201 10.724 24.4972 10.8324 24.6225 10.9517C24.7689 11.0912 24.8485 11.4005 24.8263 11.9222C24.8005 12.4788 25.0227 13.1957 25.2196 13.2785L25.4909 13.4642C25.3666 13.4966 24.8329 13.375 24.8335 13.3788Z" fill="#C09300"/>
<path fill-rule="evenodd" clip-rule="evenodd" d="M24.5907 11.1661C24.6561 11.3076 24.692 11.5506 24.6765 11.9155C24.6545 12.39 24.7929 12.9601 24.9836 13.2471C24.9715 13.245 24.6577 13.0922 24.6306 13.1113C24.6176 13.1205 24.649 13.2963 24.6601 13.3247L24.6628 13.3318C24.5879 13.3146 24.5169 13.2853 24.4505 13.247C24.3837 13.2085 24.2685 13.0778 24.2513 13.0772C24.2343 13.0765 24.0253 13.3199 24.0226 13.3228L23.7873 13.049C23.7873 13.049 23.4766 13.3336 23.4678 13.3388L23.5284 13.049C23.5284 13.049 23.2374 13.2226 23.0587 13.263C23.1203 13.1808 23.1892 13.0818 23.2582 12.9711C23.3783 12.7782 23.4718 12.5889 23.5284 12.4096C23.6504 12.0254 23.685 11.6665 23.6252 11.4532C23.6766 11.4316 23.8161 11.4615 23.8161 11.4615C23.5965 11.1043 23.3472 11.0193 23.2374 11.0259C23.1784 11.0286 23.1325 11.0641 23.099 11.1047C23.0852 11.1095 23.0714 11.1153 23.0575 11.1222C23.0579 11.1171 23.0583 11.1119 23.0589 11.1066C23.0676 11.0252 23.0972 10.9501 23.122 10.9343C23.1525 10.915 23.2833 10.9136 23.4388 10.9197C23.4795 10.9377 23.5198 10.9656 23.5739 11.0063C23.7042 11.1043 23.8072 11.1522 23.8712 11.1414C23.8918 11.1392 23.9032 11.174 23.9238 11.198C23.9398 11.2154 23.9352 11.2307 23.997 11.2307C24.0359 11.2307 24.0565 11.1588 24.0816 11.1392C24.1136 11.1152 24.1731 11.1043 24.212 11.0956C24.2943 11.076 24.3332 11.0782 24.3949 11.0717C24.4061 11.0704 24.4276 11.0691 24.4538 11.0698C24.5299 11.1078 24.5815 11.1462 24.5907 11.1661Z" fill="white"/>
</g>
</svg>
