<svg width="48" height="32" viewBox="0 0 48 32" fill="none" xmlns="http://www.w3.org/2000/svg">
<mask id="mask0_0_981" style="mask-type:alpha" maskUnits="userSpaceOnUse" x="0" y="0" width="48" height="32">
<rect width="48" height="32" rx="5" fill="#D9D9D9"/>
</mask>
<g mask="url(#mask0_0_981)">
<rect width="48" height="32" fill="white"/>
<rect x="21" width="6" height="32" fill="#E94B35"/>
<rect y="13" width="48" height="6" fill="#E94B35"/>
<path fill-rule="evenodd" clip-rule="evenodd" d="M35.7639 5.26386C35.7184 4.33797 35.6087 3.41446 35.4349 2.5C36.3083 2.60897 35.4349 2.5 35.4349 2.5C36.3083 2.60897 37.1917 2.60897 38.0651 2.5C37.8913 3.41446 37.7816 4.33797 37.7361 5.26386C38.662 5.21835 39.5855 5.1087 40.5 4.93491C40.391 5.80825 40.391 6.69175 40.5 7.56509C39.5855 7.3913 38.662 7.28165 37.7361 7.23614C37.7816 8.16203 37.8913 9.08554 38.0651 10C37.1917 9.89103 36.3083 9.89103 35.4349 10C35.6087 9.08554 35.7184 8.16203 35.7639 7.23614C34.838 7.28165 33.9145 7.3913 33 7.56509C33.109 6.69175 33 7.56509 33 7.56509C33.109 6.69175 33.109 5.80825 33 4.93491C33.9145 5.1087 34.838 5.21835 35.7639 5.26386C35.7639 5.26386 34.838 5.21835 35.7639 5.26386V5.26386Z" fill="#E94B35"/>
<path fill-rule="evenodd" clip-rule="evenodd" d="M10.2639 24.7639C10.2184 23.838 10.1087 22.9145 9.93491 22C10.8083 22.109 9.93491 22 9.93491 22C10.8083 22.109 11.6917 22.109 12.5651 22C12.3913 22.9145 12.2816 23.838 12.2361 24.7639C13.162 24.7184 14.0855 24.6087 15 24.4349C14.891 25.3083 14.891 26.1917 15 27.0651C14.0855 26.8913 13.162 26.7816 12.2361 26.7361C12.2816 27.662 12.3913 28.5855 12.5651 29.5C11.6917 29.391 10.8083 29.391 9.93491 29.5C10.1087 28.5855 10.2184 27.662 10.2639 26.7361C9.33797 26.7816 8.41446 26.8913 7.5 27.0651C7.60897 26.1917 7.5 27.0651 7.5 27.0651C7.60897 26.1917 7.60897 25.3083 7.5 24.4349C8.41446 24.6087 9.33797 24.7184 10.2639 24.7639C10.2639 24.7639 9.33797 24.7184 10.2639 24.7639V24.7639Z" fill="#E94B35"/>
<path fill-rule="evenodd" clip-rule="evenodd" d="M35.7639 24.7639C35.7184 23.838 35.6087 22.9145 35.4349 22C36.3083 22.109 35.4349 22 35.4349 22C36.3083 22.109 37.1917 22.109 38.0651 22C37.8913 22.9145 37.7816 23.838 37.7361 24.7639C38.662 24.7184 39.5855 24.6087 40.5 24.4349C40.391 25.3083 40.391 26.1917 40.5 27.0651C39.5855 26.8913 38.662 26.7816 37.7361 26.7361C37.7816 27.662 37.8913 28.5855 38.0651 29.5C37.1917 29.391 36.3083 29.391 35.4349 29.5C35.6087 28.5855 35.7184 27.662 35.7639 26.7361C34.838 26.7816 33.9145 26.8913 33 27.0651C33.109 26.1917 33 27.0651 33 27.0651C33.109 26.1917 33.109 25.3083 33 24.4349C33.9145 24.6087 34.838 24.7184 35.7639 24.7639C35.7639 24.7639 34.838 24.7184 35.7639 24.7639V24.7639Z" fill="#E94B35"/>
<path fill-rule="evenodd" clip-rule="evenodd" d="M10.2639 5.26386C10.2184 4.33797 10.1087 3.41446 9.93491 2.5C10.8083 2.60897 9.93491 2.5 9.93491 2.5C10.8083 2.60897 11.6917 2.60897 12.5651 2.5C12.3913 3.41446 12.2816 4.33797 12.2361 5.26386C13.162 5.21835 14.0855 5.1087 15 4.93491C14.891 5.80825 14.891 6.69175 15 7.56509C14.0855 7.3913 13.162 7.28165 12.2361 7.23614C12.2816 8.16203 12.3913 9.08554 12.5651 10C11.6917 9.89103 10.8083 9.89103 9.93491 10C10.1087 9.08554 10.2184 8.16203 10.2639 7.23614C9.33797 7.28165 8.41446 7.3913 7.5 7.56509C7.60897 6.69175 7.5 7.56509 7.5 7.56509C7.60897 6.69175 7.60897 5.80825 7.5 4.93491C8.41446 5.1087 9.33797 5.21835 10.2639 5.26386C10.2639 5.26386 9.33797 5.21835 10.2639 5.26386V5.26386Z" fill="#E94B35"/>
</g>
</svg>
