<svg width="48" height="32" viewBox="0 0 48 32" fill="none" xmlns="http://www.w3.org/2000/svg">
<mask id="mask0_0_1265" style="mask-type:alpha" maskUnits="userSpaceOnUse" x="0" y="0" width="48" height="32">
<rect width="48" height="32" rx="5" fill="#D9D9D9"/>
</mask>
<g mask="url(#mask0_0_1265)">
<rect width="48" height="32" fill="#4BB7C0"/>
<path fill-rule="evenodd" clip-rule="evenodd" d="M20.6063 18.6107C21.14 19.3018 21.9557 20.3581 23.2131 21.2837C24.44 22.1868 27.0495 22.8703 28.7904 23.1386C28.7639 23.1689 28.7375 23.1993 28.7111 23.2297C28.3248 23.6742 27.9393 24.1178 27.3656 24.3043C27.2319 24.3724 27.0849 24.4227 26.9374 24.4732C26.6336 24.5773 26.3275 24.6821 26.1306 24.9442C26.1053 24.9939 26.0999 25.0516 26.1008 25.1068C26.0921 25.1255 26.0858 25.1437 26.0819 25.1613C26.0746 25.1657 26.0673 25.17 26.06 25.1743C25.9418 25.2442 25.8187 25.317 25.7482 25.4394C25.7044 25.5009 25.6948 25.5712 25.6848 25.6441L25.6841 25.6496C25.6777 25.7416 25.7007 25.8388 25.7392 25.9242C25.7454 25.9351 25.7511 25.9191 25.7592 25.8964C25.7696 25.8671 25.7839 25.8266 25.8085 25.8178C25.8816 25.756 25.9726 25.7113 26.065 25.6864C26.1432 25.6456 26.1329 25.689 26.1009 25.7521C26.0996 25.7575 26.0973 25.7655 26.0947 25.7748C26.0815 25.8212 26.0594 25.8993 26.1086 25.8467C26.3689 25.7284 26.6575 25.7048 26.9384 25.6824C27.3462 25.6391 27.7969 25.5995 28.2184 25.7208C29.2572 25.8178 30.1316 25.5296 30.1573 25.5034C30.1716 25.398 29.8458 25.4093 29.4307 25.4237C28.9951 25.4388 28.4613 25.4573 28.1193 25.348C27.3726 25.1091 28.3173 24.4336 28.5704 24.2526L28.5773 24.2477C28.5917 24.2355 28.6094 24.2199 28.6305 24.2013C28.8364 24.0201 29.3631 23.5565 30.1573 23.2872C30.5337 23.1596 30.9428 23.0341 31.3559 22.9073C32.1989 22.6486 33.0589 22.3846 33.6937 22.087C35.2998 21.3338 36.4818 20.0005 37.2569 19.1262C37.8845 18.4182 38.2454 18.0112 38.3485 18.4571C38.4993 19.0913 37.7213 20.3052 36.6004 21.6599C35.501 22.9887 33.899 24.0313 33.5248 24.0697C34.4689 24.144 35.4412 23.9645 36.2479 23.4386C36.2849 23.3937 36.3767 23.3476 36.4675 23.3021C36.6376 23.2167 36.8041 23.1332 36.6004 23.0625C36.5627 23.0464 36.5138 23.0298 36.4617 23.0121C36.3108 22.961 36.1326 22.9007 36.1168 22.8153C36.3737 22.6529 36.6698 22.62 36.9658 22.5871C37.1733 22.564 37.3806 22.5409 37.5743 22.4733C37.5829 22.3633 37.4014 22.3525 37.2454 22.3432C37.1802 22.3394 37.1195 22.3358 37.0789 22.3253C36.7502 22.2977 36.7695 22.2118 37.0865 22.1799C37.1933 22.1509 37.3039 22.1282 37.4151 22.1053C37.7212 22.0422 38.0315 21.9784 38.2789 21.7819C38.1346 21.7134 37.9706 21.7126 37.805 21.7118C37.6556 21.7111 37.5048 21.7104 37.3658 21.6599C37.5599 21.5729 37.7676 21.5165 37.9752 21.4601C38.299 21.3721 38.6227 21.2841 38.8943 21.0803C39.0694 20.8807 38.7491 20.9071 38.5711 20.9217C38.5427 20.924 38.5179 20.9261 38.4993 20.9268C38.2241 20.9759 38.097 20.841 38.4095 20.7239C38.5753 20.5987 38.7547 20.4871 38.9346 20.3753C39.3339 20.127 39.7354 19.8774 39.9938 19.4745C40.0826 19.3437 40.2028 18.9495 39.9196 19.0913C39.7906 19.1353 39.6668 19.2155 39.5426 19.2961C39.3084 19.448 39.0724 19.6012 38.7951 19.5145C39.6313 18.8505 40.427 18.0947 40.9985 17.1759C41.028 16.9109 40.622 16.8822 40.5163 17.0903C40.3938 17.2112 40.2739 17.3371 40.1537 17.4634C39.7468 17.8908 39.336 18.3224 38.805 18.579C39.4637 17.9277 40.0084 17.1564 40.4835 16.357C40.51 16.2953 40.5481 16.2302 40.5873 16.1632C40.6992 15.9722 40.8206 15.7648 40.7106 15.5694C40.4711 15.3663 40.1715 15.5522 40.047 15.7953C39.9148 15.9721 39.7926 16.1583 39.6704 16.3447C39.4065 16.7468 39.1422 17.1497 38.7752 17.4606C39.2454 16.5413 39.7322 15.5628 39.744 14.5025C39.7426 14.2842 39.6998 13.9627 39.4105 14.0035C39.2606 14.031 39.2319 14.1906 39.2036 14.3476C39.1886 14.4309 39.1738 14.5135 39.141 14.5752C39.0879 14.7598 39.042 14.9483 38.996 15.1372C38.8616 15.6896 38.7262 16.2457 38.408 16.7183C38.4259 16.6084 38.4464 16.4976 38.467 16.3862C38.5565 15.9012 38.6481 15.4051 38.5431 14.9217C38.4828 14.6561 38.0641 14.7703 38.118 15.0332C37.6178 17.6292 35.9175 19.8996 33.6937 21.213C32.6755 21.8031 31.5382 22.1836 30.3811 22.3561C30.2496 22.3856 30.1136 22.3954 29.9777 22.4051C29.792 22.4183 29.6067 22.4316 29.4337 22.4953C29.393 22.4927 29.3524 22.4897 29.3118 22.4861C27.6205 22.3839 25.0252 21.7573 23.6289 20.7762C21.9334 19.5776 20.6323 17.7915 20.0529 15.7608C20.0057 15.6219 19.9754 15.4731 19.9453 15.3255C19.9105 15.1545 19.8759 14.9852 19.816 14.8349C19.6777 14.7184 19.466 14.7767 19.4435 14.9694C19.3609 15.4667 19.4535 15.9694 19.5444 16.4624C19.5608 16.5515 19.5771 16.6402 19.5924 16.7285C19.2616 16.2247 19.1206 15.6376 18.9803 15.0534C18.9292 14.8406 18.8782 14.6282 18.8182 14.4204C18.7957 14.3775 18.7832 14.3204 18.7706 14.2625C18.7411 14.1279 18.7108 13.9889 18.5511 14.0137C18.2827 14.0054 18.2667 14.3082 18.2559 14.5135C18.2558 14.5161 18.2556 14.5187 18.2555 14.5213C18.2673 15.567 18.7492 16.5248 19.207 17.4348C19.213 17.4468 19.2191 17.4588 19.2251 17.4708C18.8681 17.1623 18.607 16.7673 18.3463 16.3728C18.21 16.1666 18.0738 15.9605 17.924 15.767C17.8113 15.5715 17.5909 15.4162 17.3688 15.5302C17.1466 15.61 17.2697 15.8813 17.344 16.0312C17.7588 16.8628 18.3239 17.6086 18.9174 18.3147C18.938 18.3533 19.0162 18.4211 19.0805 18.4768C19.1654 18.5504 19.2259 18.6029 19.0961 18.5384C18.6087 18.2748 18.2229 17.8694 17.8399 17.4668C17.7181 17.3387 17.5965 17.211 17.4721 17.0882C17.3673 16.8879 16.9694 16.9268 17.0019 17.1861C17.4745 17.9627 18.1291 18.6061 18.8035 19.1989C18.8377 19.2492 18.9145 19.3026 18.9882 19.3539C19.0924 19.4262 19.1906 19.4945 19.1546 19.5442C18.8927 19.5868 18.6787 19.4502 18.4639 19.3131C18.2993 19.2081 18.1342 19.1027 17.9466 19.0773C17.8084 19.1078 17.9573 19.339 18.0288 19.4501C18.0344 19.4588 18.0396 19.4668 18.044 19.4738C18.5446 20.0199 19.2275 20.3229 19.8907 20.6172C19.9636 20.6496 20.0363 20.6818 20.1085 20.7143C19.9308 20.7914 19.7372 20.7726 19.5456 20.754C19.4616 20.7459 19.3781 20.7378 19.2963 20.7378C19.2599 20.7477 19.1917 20.7376 19.1218 20.7273C18.9896 20.7077 18.8512 20.6872 18.9103 20.8C19.1549 21.0825 19.5018 21.1299 19.8496 21.1774C20.0587 21.2059 20.2681 21.2345 20.4558 21.3142C20.3427 21.4118 20.1886 21.4384 20.045 21.4631C20.0334 21.4651 20.0219 21.4671 20.0105 21.4691C19.9657 21.4882 19.8967 21.4946 19.8266 21.501C19.7069 21.512 19.584 21.5234 19.5725 21.5989C19.7572 21.7285 19.978 21.7571 20.1986 21.7857C20.3183 21.8012 20.438 21.8167 20.5517 21.8483C20.8724 21.8686 20.7313 21.9363 20.5039 21.9921C20.4626 22.0104 20.4099 22.0231 20.3561 22.036C20.2524 22.0609 20.1446 22.0868 20.1066 22.1562C20.3986 22.3433 20.7457 22.4026 21.0866 22.4608C21.185 22.4776 21.2829 22.4943 21.3789 22.514C21.2862 22.5553 21.1887 22.5832 21.0914 22.6111C20.9721 22.6453 20.8532 22.6793 20.7437 22.7377C21.1973 22.909 21.6428 23.1011 22.0854 23.3C22.9394 23.6892 23.8456 23.9736 24.7832 24.029C24.4605 23.9665 22.1638 22.1801 20.882 20.8C19.6002 19.4199 19.4854 17.8943 19.816 17.8798C19.9665 17.7822 20.2078 18.0947 20.6063 18.6107ZM33.1736 26.117C33.221 26.0009 33.2669 25.8886 33.3562 25.8388C33.4269 25.8665 33.4957 25.9137 33.5651 25.9614C33.7244 26.0707 33.8866 26.182 34.0807 26.0626C34.2042 25.9702 34.2213 25.8109 34.2377 25.6586C34.2435 25.6049 34.2492 25.5521 34.2594 25.5034C34.2276 25.3048 34.3039 25.3688 34.4113 25.459C34.4968 25.5307 34.602 25.6189 34.6881 25.6047C35.095 25.7488 35.6004 25.4211 35.5298 24.9543C35.1483 24.9403 34.7682 24.8983 34.3882 24.8563C33.8368 24.7954 33.2856 24.7345 32.7304 24.759C32.7072 24.7615 32.6841 24.8108 32.6491 24.8856C32.5584 25.0797 32.3877 25.4448 31.927 25.6047C31.2297 25.8466 30.1507 25.9084 29.3893 25.952C29.1014 25.9684 28.8589 25.9823 28.6997 26.0024C28.1387 26.0512 27.4715 26.2707 27.3118 26.8963C27.6321 26.9837 27.9121 26.7847 28.1748 26.5981C28.2481 26.546 28.32 26.4948 28.3911 26.4512C28.4343 26.4751 28.4274 26.5596 28.4194 26.6575C28.4092 26.7815 28.3973 26.9269 28.483 26.998C28.7535 26.9763 28.9414 26.7166 29.1046 26.4909C29.1329 26.4517 29.1605 26.4135 29.1877 26.3778C29.2673 26.4704 29.2465 26.588 29.2262 26.7026C29.2068 26.8118 29.188 26.9184 29.2572 26.998C29.4943 27.0209 29.6416 26.8432 29.7874 26.6674C29.8661 26.5725 29.9443 26.4781 30.036 26.4161C30.1247 26.4007 30.1048 26.5026 30.0815 26.6217C30.0588 26.7377 30.033 26.87 30.1008 26.9268C30.352 27.036 30.6116 26.8525 30.6925 26.6033C30.8103 26.2508 30.9189 26.5118 30.9643 26.7336C31.1107 26.9849 31.3935 26.7482 31.4997 26.5818C31.5983 26.3239 31.6949 26.4329 31.81 26.5629C31.8469 26.6045 31.8857 26.6482 31.927 26.6828C32.1713 26.7223 32.3016 26.5342 32.4297 26.3492C32.4903 26.2618 32.5504 26.1751 32.6218 26.1134C32.6048 26.3274 32.8328 26.6048 33.0188 26.3879C33.0908 26.32 33.1328 26.2171 33.1736 26.117Z" fill="#FEC50C"/>
<path fill-rule="evenodd" clip-rule="evenodd" d="M29.5 17.6598L28.0426 19.827L27.5254 17.267L25.3496 18.7115L25.8514 16.1485L23.2884 16.6504L24.7329 14.4745L22.1729 13.9574L24.3401 12.4999L22.1729 11.0425L24.7329 10.5253L23.2884 8.34946L25.8514 8.85134L25.3496 6.28832L27.5254 7.73283L28.0426 5.17284L29.5 7.34006L30.9574 5.17284L31.4746 7.73283L33.6505 6.28832L33.1486 8.85134L35.7116 8.34946L34.2671 10.5253L36.8271 11.0425L34.6599 12.4999L36.8271 13.9574L34.2671 14.4745L35.7116 16.6504L33.1486 16.1485L33.6505 18.7115L31.4746 17.267L30.9574 19.827L29.5 17.6598Z" fill="#F2C500"/>
<circle cx="29.5" cy="12.5" r="5.5" fill="#4BB7C0"/>
<circle cx="29.5" cy="12.5" r="4.5" fill="#F2C500"/>
<path fill-rule="evenodd" clip-rule="evenodd" d="M2 2.55808C2 3.40577 2.67157 4.09296 3.5 4.09296C4.32843 4.09296 5 3.40577 5 2.55808C5 1.71038 4.32843 1.02319 3.5 1.02319C2.67157 1.02319 2 1.71038 2 2.55808ZM4 2.55808C4 2.84064 3.77614 3.06971 3.5 3.06971C3.22386 3.06971 3 2.84064 3 2.55808C3 2.27551 3.22386 2.04645 3.5 2.04645C3.77614 2.04645 4 2.27551 4 2.55808Z" fill="#F2C500"/>
<path fill-rule="evenodd" clip-rule="evenodd" d="M4 2.55808C4 3.40577 4.67157 4.09296 5.5 4.09296C6.32843 4.09296 7 3.40577 7 2.55808C7 1.71038 6.32843 1.02319 5.5 1.02319C4.67157 1.02319 4 1.71038 4 2.55808ZM6 2.55808C6 2.84064 5.77614 3.06971 5.5 3.06971C5.22386 3.06971 5 2.84064 5 2.55808C5 2.27551 5.22386 2.04645 5.5 2.04645C5.77614 2.04645 6 2.27551 6 2.55808Z" fill="#F2C500"/>
<path fill-rule="evenodd" clip-rule="evenodd" d="M6 0.5C6 0.223857 6.22386 0 6.5 0V0C6.77614 0 7 0.223858 7 0.5V2.55814L6 2.04651V0.5Z" fill="#F2C500"/>
<path fill-rule="evenodd" clip-rule="evenodd" d="M2 4.60471C2 5.4524 2.67157 6.13959 3.5 6.13959C4.32843 6.13959 5 5.4524 5 4.60471C5 3.75702 4.32843 3.06982 3.5 3.06982C2.67157 3.06982 2 3.75702 2 4.60471ZM4 4.60471C4 4.88727 3.77614 5.11634 3.5 5.11634C3.22386 5.11634 3 4.88727 3 4.60471C3 4.32214 3.22386 4.09308 3.5 4.09308C3.77614 4.09308 4 4.32214 4 4.60471Z" fill="#F2C500"/>
<path fill-rule="evenodd" clip-rule="evenodd" d="M4 4.60471C4 5.4524 4.67157 6.13959 5.5 6.13959C6.32843 6.13959 7 5.4524 7 4.60471C7 3.75702 6.32843 3.06982 5.5 3.06982C4.67157 3.06982 4 3.75702 4 4.60471ZM6 4.60471C6 4.88727 5.77614 5.11634 5.5 5.11634C5.22386 5.11634 5 4.88727 5 4.60471C5 4.32214 5.22386 4.09308 5.5 4.09308C5.77614 4.09308 6 4.32214 6 4.60471Z" fill="#F2C500"/>
<path fill-rule="evenodd" clip-rule="evenodd" d="M2 0.500001C2 0.223858 2.22386 0 2.5 0V0C2.77614 0 3 0.223858 3 0.5V2.04651L2 2.55814V0.500001Z" fill="#F2C500"/>
<path fill-rule="evenodd" clip-rule="evenodd" d="M2 4.60474L3 5.11636V6.66288C3 6.93902 2.77614 7.16288 2.5 7.16288V7.16288C2.22386 7.16288 2 6.93902 2 6.66288V4.60474Z" fill="#F2C500"/>
<path fill-rule="evenodd" clip-rule="evenodd" d="M6.00001 5.11636L7.00001 4.60474V6.66288C7.00001 6.93902 6.77616 7.16288 6.50001 7.16288V7.16288C6.22387 7.16288 6.00001 6.93902 6.00001 6.66288V5.11636Z" fill="#F2C500"/>
<path fill-rule="evenodd" clip-rule="evenodd" d="M2 14.9768C2 15.8245 2.67157 16.5117 3.5 16.5117C4.32843 16.5117 5 15.8245 5 14.9768C5 14.1291 4.32843 13.4419 3.5 13.4419C2.67157 13.4419 2 14.1291 2 14.9768ZM4 14.9768C4 15.2593 3.77614 15.4884 3.5 15.4884C3.22386 15.4884 3 15.2593 3 14.9768C3 14.6942 3.22386 14.4652 3.5 14.4652C3.77614 14.4652 4 14.6942 4 14.9768Z" fill="#F2C500"/>
<path fill-rule="evenodd" clip-rule="evenodd" d="M4 14.9768C4 15.8245 4.67157 16.5117 5.5 16.5117C6.32843 16.5117 7 15.8245 7 14.9768C7 14.1291 6.32843 13.4419 5.5 13.4419C4.67157 13.4419 4 14.1291 4 14.9768ZM6 14.9768C6 15.2593 5.77614 15.4884 5.5 15.4884C5.22386 15.4884 5 15.2593 5 14.9768C5 14.6942 5.22386 14.4652 5.5 14.4652C5.77614 14.4652 6 14.6942 6 14.9768Z" fill="#F2C500"/>
<path fill-rule="evenodd" clip-rule="evenodd" d="M6 12.9187C6 12.6426 6.22386 12.4187 6.5 12.4187V12.4187C6.77614 12.4187 7 12.6426 7 12.9187V14.9768L6 14.4652V12.9187Z" fill="#F2C500"/>
<path fill-rule="evenodd" clip-rule="evenodd" d="M2 17.0232C2 17.8709 2.67157 18.558 3.5 18.558C4.32843 18.558 5 17.8709 5 17.0232C5 16.1755 4.32843 15.4883 3.5 15.4883C2.67157 15.4883 2 16.1755 2 17.0232ZM4 17.0232C4 17.3057 3.77614 17.5348 3.5 17.5348C3.22386 17.5348 3 17.3057 3 17.0232C3 16.7406 3.22386 16.5115 3.5 16.5115C3.77614 16.5115 4 16.7406 4 17.0232Z" fill="#F2C500"/>
<path fill-rule="evenodd" clip-rule="evenodd" d="M4 17.0232C4 17.8709 4.67157 18.558 5.5 18.558C6.32843 18.558 7 17.8709 7 17.0232C7 16.1755 6.32843 15.4883 5.5 15.4883C4.67157 15.4883 4 16.1755 4 17.0232ZM6 17.0232C6 17.3057 5.77614 17.5348 5.5 17.5348C5.22386 17.5348 5 17.3057 5 17.0232C5 16.7406 5.22386 16.5115 5.5 16.5115C5.77614 16.5115 6 16.7406 6 17.0232Z" fill="#F2C500"/>
<path fill-rule="evenodd" clip-rule="evenodd" d="M2 12.9187C2 12.6426 2.22386 12.4187 2.5 12.4187V12.4187C2.77614 12.4187 3 12.6426 3 12.9187V14.4652L2 14.9768V12.9187Z" fill="#F2C500"/>
<path fill-rule="evenodd" clip-rule="evenodd" d="M2 17.0232L3 17.5348V19.0813C3 19.3575 2.77614 19.5813 2.5 19.5813V19.5813C2.22386 19.5813 2 19.3575 2 19.0813V17.0232Z" fill="#F2C500"/>
<path fill-rule="evenodd" clip-rule="evenodd" d="M6.00001 17.5348L7.00001 17.0232V19.0813C7.00001 19.3575 6.77616 19.5813 6.50001 19.5813V19.5813C6.22387 19.5813 6.00001 19.3575 6.00001 19.0813V17.5348Z" fill="#F2C500"/>
<path d="M4.05844 5.27917C2.68964 6.86055 2 8.05682 2 8.89239C2 9.79992 2.60909 10.3728 3.56553 10.2952C4.39386 10.228 5 9.65748 5 8.9725V8.48288C5 8.3134 4.77614 8.17601 4.5 8.17601C4.22386 8.17601 4 8.3134 4 8.48288V8.9725C4 9.37935 3.69592 9.66559 3.43447 9.6868C3.23626 9.70288 3 9.48066 3 8.89239C3 8.18312 3.64372 7.0665 4.94156 5.56711C5.07111 5.41744 4.97844 5.23165 4.73457 5.15214C4.49071 5.07263 4.18799 5.1295 4.05844 5.27917Z" fill="#F2C500"/>
<path d="M4.94166 5.27917C6.31046 6.86055 7.0001 8.05682 7.0001 8.89239C7.0001 9.79992 6.39101 10.3728 5.43457 10.2952C4.60624 10.228 4.0001 9.65748 4.0001 8.9725V8.48288C4.0001 8.3134 4.22396 8.17601 4.5001 8.17601C4.77624 8.17601 5.0001 8.3134 5.0001 8.48288V8.9725C5.0001 9.37935 5.30418 9.66559 5.56563 9.6868C5.76384 9.70288 6.0001 9.48066 6.0001 8.89239C6.0001 8.18312 5.35638 7.0665 4.05854 5.56711C3.92899 5.41744 4.02166 5.23165 4.26553 5.15214C4.50939 5.07263 4.81211 5.1295 4.94166 5.27917Z" fill="#F2C500"/>
<path d="M4.05844 14.3021C2.68964 12.7207 2 11.5245 2 10.6889C2 9.78138 2.60909 9.20845 3.56553 9.28605C4.39386 9.35326 5 9.92382 5 10.6088V11.0984C5 11.2679 4.77614 11.4053 4.5 11.4053C4.22386 11.4053 4 11.2679 4 11.0984V10.6088C4 10.2019 3.69592 9.91571 3.43447 9.8945C3.23626 9.87842 3 10.1006 3 10.6889C3 11.3982 3.64372 12.5148 4.94156 14.0142C5.07111 14.1639 4.97844 14.3496 4.73457 14.4292C4.49071 14.5087 4.18799 14.4518 4.05844 14.3021Z" fill="#F2C500"/>
<path d="M4.94166 14.3021C6.31046 12.7207 7.0001 11.5245 7.0001 10.6889C7.0001 9.78138 6.39101 9.20845 5.43457 9.28605C4.60624 9.35326 4.0001 9.92382 4.0001 10.6088V11.0984C4.0001 11.2679 4.22396 11.4053 4.5001 11.4053C4.77624 11.4053 5.0001 11.2679 5.0001 11.0984V10.6088C5.0001 10.2019 5.30418 9.91571 5.56563 9.8945C5.76384 9.87842 6.0001 10.1006 6.0001 10.6889C6.0001 11.3982 5.35638 12.5148 4.05854 14.0142C3.92899 14.1639 4.02166 14.3496 4.26553 14.4292C4.50939 14.5087 4.81211 14.4518 4.94166 14.3021Z" fill="#F2C500"/>
<path fill-rule="evenodd" clip-rule="evenodd" d="M2 27.3952C2 28.2429 2.67157 28.9301 3.5 28.9301C4.32843 28.9301 5 28.2429 5 27.3952C5 26.5475 4.32843 25.8604 3.5 25.8604C2.67157 25.8604 2 26.5475 2 27.3952ZM4 27.3952C4 27.6778 3.77614 27.9069 3.5 27.9069C3.22386 27.9069 3 27.6778 3 27.3952C3 27.1127 3.22386 26.8836 3.5 26.8836C3.77614 26.8836 4 27.1127 4 27.3952Z" fill="#F2C500"/>
<path fill-rule="evenodd" clip-rule="evenodd" d="M4 27.3952C4 28.2429 4.67157 28.9301 5.5 28.9301C6.32843 28.9301 7 28.2429 7 27.3952C7 26.5475 6.32843 25.8604 5.5 25.8604C4.67157 25.8604 4 26.5475 4 27.3952ZM6 27.3952C6 27.6778 5.77614 27.9069 5.5 27.9069C5.22386 27.9069 5 27.6778 5 27.3952C5 27.1127 5.22386 26.8836 5.5 26.8836C5.77614 26.8836 6 27.1127 6 27.3952Z" fill="#F2C500"/>
<path fill-rule="evenodd" clip-rule="evenodd" d="M6 25.3372C6 25.061 6.22386 24.8372 6.5 24.8372V24.8372C6.77614 24.8372 7 25.061 7 25.3372V27.3953L6 26.8837V25.3372Z" fill="#F2C500"/>
<path fill-rule="evenodd" clip-rule="evenodd" d="M2 29.4419C2 30.2896 2.67157 30.9767 3.5 30.9767C4.32843 30.9767 5 30.2896 5 29.4419C5 28.5942 4.32843 27.907 3.5 27.907C2.67157 27.907 2 28.5942 2 29.4419ZM4 29.4419C4 29.7244 3.77614 29.9535 3.5 29.9535C3.22386 29.9535 3 29.7244 3 29.4419C3 29.1593 3.22386 28.9302 3.5 28.9302C3.77614 28.9302 4 29.1593 4 29.4419Z" fill="#F2C500"/>
<path fill-rule="evenodd" clip-rule="evenodd" d="M4 29.4419C4 30.2896 4.67157 30.9767 5.5 30.9767C6.32843 30.9767 7 30.2896 7 29.4419C7 28.5942 6.32843 27.907 5.5 27.907C4.67157 27.907 4 28.5942 4 29.4419ZM6 29.4419C6 29.7244 5.77614 29.9535 5.5 29.9535C5.22386 29.9535 5 29.7244 5 29.4419C5 29.1593 5.22386 28.9302 5.5 28.9302C5.77614 28.9302 6 29.1593 6 29.4419Z" fill="#F2C500"/>
<path fill-rule="evenodd" clip-rule="evenodd" d="M2 25.3372C2 25.061 2.22386 24.8372 2.5 24.8372V24.8372C2.77614 24.8372 3 25.061 3 25.3372V26.8837L2 27.3953V25.3372Z" fill="#F2C500"/>
<path fill-rule="evenodd" clip-rule="evenodd" d="M2 29.4419L3 29.9535V31.5C3 31.7762 2.77614 32 2.5 32V32C2.22386 32 2 31.7762 2 31.5V29.4419Z" fill="#F2C500"/>
<path fill-rule="evenodd" clip-rule="evenodd" d="M6.00001 29.9535L7.00001 29.4419V31.5C7.00001 31.7762 6.77616 32 6.50001 32V32C6.22387 32 6.00001 31.7762 6.00001 31.5V29.9535Z" fill="#F2C500"/>
<path d="M4.05844 17.6976C2.68964 19.279 2 20.4753 2 21.3108C2 22.2184 2.60909 22.7913 3.56553 22.7137C4.39386 22.6465 5 22.0759 5 21.391V20.9013C5 20.7319 4.77614 20.5945 4.5 20.5945C4.22386 20.5945 4 20.7319 4 20.9013V21.391C4 21.7978 3.69592 22.084 3.43447 22.1053C3.23626 22.1213 3 21.8991 3 21.3108C3 20.6016 3.64372 19.485 4.94156 17.9856C5.07111 17.8359 4.97844 17.6501 4.73457 17.5706C4.49071 17.4911 4.18799 17.548 4.05844 17.6976Z" fill="#F2C500"/>
<path d="M4.94166 17.6976C6.31046 19.279 7.0001 20.4753 7.0001 21.3108C7.0001 22.2184 6.39101 22.7913 5.43457 22.7137C4.60624 22.6465 4.0001 22.0759 4.0001 21.391V20.9013C4.0001 20.7319 4.22396 20.5945 4.5001 20.5945C4.77624 20.5945 5.0001 20.7319 5.0001 20.9013V21.391C5.0001 21.7978 5.30418 22.084 5.56563 22.1053C5.76384 22.1213 6.0001 21.8991 6.0001 21.3108C6.0001 20.6016 5.35638 19.485 4.05854 17.9856C3.92899 17.8359 4.02166 17.6501 4.26553 17.5706C4.50939 17.4911 4.81211 17.548 4.94166 17.6976Z" fill="#F2C500"/>
<path d="M4.05844 26.7206C2.68964 25.1392 2 23.9429 2 23.1074C2 22.1998 2.60909 21.6269 3.56553 21.7045C4.39386 21.7717 5 22.3423 5 23.0273V23.5169C5 23.6864 4.77614 23.8237 4.5 23.8237C4.22386 23.8237 4 23.6864 4 23.5169V23.0273C4 22.6204 3.69592 22.3342 3.43447 22.313C3.23626 22.2969 3 22.5191 3 23.1074C3 23.8166 3.64372 24.9333 4.94156 26.4326C5.07111 26.5823 4.97844 26.7681 4.73457 26.8476C4.49071 26.9271 4.18799 26.8703 4.05844 26.7206Z" fill="#F2C500"/>
<path d="M4.94166 26.7206C6.31046 25.1392 7.0001 23.9429 7.0001 23.1074C7.0001 22.1998 6.39101 21.6269 5.43457 21.7045C4.60624 21.7717 4.0001 22.3423 4.0001 23.0273V23.5169C4.0001 23.6864 4.22396 23.8237 4.5001 23.8237C4.77624 23.8237 5.0001 23.6864 5.0001 23.5169V23.0273C5.0001 22.6204 5.30418 22.3342 5.56563 22.313C5.76384 22.2969 6.0001 22.5191 6.0001 23.1074C6.0001 23.8166 5.35638 24.9333 4.05854 26.4326C3.92899 26.5823 4.02166 26.7681 4.26553 26.8476C4.50939 26.9271 4.81211 26.8703 4.94166 26.7206Z" fill="#F2C500"/>
</g>
</svg>
