<svg width="48" height="32" viewBox="0 0 48 32" fill="none" xmlns="http://www.w3.org/2000/svg">
<rect width="48" height="32" rx="5" fill="white"/>
<path fill-rule="evenodd" clip-rule="evenodd" d="M6.88476 9.28326C6.65583 9.12884 6.59543 8.81808 6.74984 8.58914L10.105 3.61492C10.2594 3.38599 10.5702 3.32558 10.7991 3.48V3.48C11.028 3.63441 11.0885 3.94518 10.934 4.17411L7.57888 9.14834C7.42446 9.37727 7.1137 9.43768 6.88476 9.28326V9.28326ZM8.54284 10.4016C8.31391 10.2472 8.2535 9.93646 8.40792 9.70753L11.7631 4.7333C11.9175 4.50437 12.2283 4.44396 12.4572 4.59838V4.59838C12.6861 4.7528 12.7465 5.06356 12.5921 5.2925L9.23695 10.2667C9.08254 10.4957 8.77177 10.5561 8.54284 10.4016V10.4016ZM14.1153 5.71677C13.8863 5.56235 13.5756 5.62276 13.4211 5.85169L10.066 10.8259C9.91158 11.0548 9.97198 11.3656 10.2009 11.52V11.52C10.4298 11.6744 10.7406 11.614 10.895 11.3851L14.2502 6.41088C14.4046 6.18195 14.3442 5.87118 14.1153 5.71677V5.71677Z" fill="black"/>
<path fill-rule="evenodd" clip-rule="evenodd" d="M14.1153 26.2832C14.3442 26.1288 14.4046 25.8181 14.2502 25.5891L10.895 20.6149C10.7406 20.386 10.4299 20.3256 10.2009 20.48V20.48C9.972 20.6344 9.91159 20.9452 10.066 21.1741L13.4212 26.1483C13.5756 26.3772 13.8863 26.4377 14.1153 26.2832V26.2832ZM10.2204 24.0855C10.4494 23.9311 10.5098 23.6203 10.3554 23.3914L9.23697 21.7333C9.08255 21.5044 8.77179 21.4439 8.54285 21.5984V21.5984C8.31392 21.7528 8.25351 22.0635 8.40793 22.2925L9.52632 23.9506C9.68073 24.1795 9.9915 24.2399 10.2204 24.0855V24.0855ZM10.7796 24.9145C11.0086 24.7601 11.3193 24.8205 11.4737 25.0494L12.5921 26.7075C12.7465 26.9364 12.6861 27.2472 12.4572 27.4016V27.4016C12.2283 27.556 11.9175 27.4956 11.7631 27.2667L10.6447 25.6086C10.4903 25.3797 10.5507 25.0689 10.7796 24.9145V24.9145ZM10.7991 28.52C11.0281 28.3656 11.0885 28.0548 10.9341 27.8259L7.57889 22.8517C7.42448 22.6227 7.11371 22.5623 6.88478 22.7167V22.7167C6.65585 22.8712 6.59544 23.1819 6.74986 23.4109L10.105 28.3851C10.2594 28.614 10.5702 28.6744 10.7991 28.52V28.52Z" fill="black"/>
<path fill-rule="evenodd" clip-rule="evenodd" d="M37.2009 3.47997C37.4299 3.32556 37.7406 3.38596 37.895 3.6149L39.0134 5.27297C39.1678 5.5019 39.1074 5.81267 38.8785 5.96709V5.96709C38.6496 6.1215 38.3388 6.0611 38.1844 5.83217L37.066 4.17409C36.9116 3.94516 36.972 3.63439 37.2009 3.47997V3.47997ZM39.4377 6.79613C39.6666 6.64171 39.9774 6.70212 40.1318 6.93105L41.2502 8.58912C41.4046 8.81805 41.3442 9.12882 41.1153 9.28324V9.28324C40.8863 9.43765 40.5756 9.37725 40.4212 9.14832L39.3028 7.49024C39.1484 7.26131 39.2088 6.95054 39.4377 6.79613V6.79613ZM39.4572 10.4016C39.6861 10.2472 39.7465 9.93644 39.5921 9.70751L36.237 4.73328C36.0826 4.50435 35.7718 4.44394 35.5429 4.59836V4.59836C35.3139 4.75278 35.2535 5.06354 35.4079 5.29248L38.7631 10.2667C38.9175 10.4956 39.2283 10.556 39.4572 10.4016V10.4016ZM33.8848 5.71675C34.1137 5.56233 34.4245 5.62274 34.5789 5.85167L35.6973 7.50974C35.8517 7.73868 35.7913 8.04944 35.5624 8.20386V8.20386C35.3334 8.35828 35.0227 8.29787 34.8682 8.06894L33.7499 6.41086C33.5954 6.18193 33.6558 5.87116 33.8848 5.71675V5.71675ZM37.7991 11.52C38.0281 11.3656 38.0885 11.0548 37.9341 10.8259L36.8157 9.16782C36.6612 8.93889 36.3505 8.87848 36.1216 9.0329V9.0329C35.8926 9.18731 35.8322 9.49808 35.9866 9.72701L37.105 11.3851C37.2594 11.614 37.5702 11.6744 37.7991 11.52V11.52Z" fill="black"/>
<path fill-rule="evenodd" clip-rule="evenodd" d="M35.5623 23.7961C35.3334 23.6417 35.0226 23.7021 34.8682 23.9311L33.7498 25.5891C33.5954 25.8181 33.6558 26.1288 33.8848 26.2833V26.2833C34.1137 26.4377 34.4245 26.3773 34.5789 26.1483L35.6973 24.4903C35.8517 24.2613 35.7913 23.9506 35.5623 23.7961V23.7961ZM37.7991 20.48C37.5702 20.3256 37.2594 20.386 37.105 20.6149L35.9866 22.273C35.8322 22.5019 35.8926 22.8127 36.1215 22.9671V22.9671C36.3505 23.1215 36.6612 23.0611 36.8157 22.8322L37.934 21.1741C38.0885 20.9452 38.028 20.6344 37.7991 20.48V20.48ZM35.5428 27.4016C35.3139 27.2472 35.2535 26.9365 35.4079 26.7075L36.5263 25.0495C36.6807 24.8205 36.9915 24.7601 37.2204 24.9145V24.9145C37.4494 25.0689 37.5098 25.3797 37.3553 25.6086L36.237 27.2667C36.0825 27.4957 35.7718 27.5561 35.5428 27.4016V27.4016ZM39.4572 21.5984C39.2283 21.444 38.9175 21.5044 38.7631 21.7333L37.6447 23.3914C37.4903 23.6203 37.5507 23.9311 37.7796 24.0855V24.0855C38.0085 24.2399 38.3193 24.1795 38.4737 23.9506L39.5921 22.2925C39.7465 22.0636 39.6861 21.7528 39.4572 21.5984V21.5984ZM37.2009 28.52C36.972 28.3656 36.9116 28.0548 37.066 27.8259L38.1844 26.1678C38.3388 25.9389 38.6496 25.8785 38.8785 26.0329V26.0329C39.1074 26.1873 39.1678 26.4981 39.0134 26.727L37.895 28.3851C37.7406 28.614 37.4298 28.6744 37.2009 28.52V28.52ZM41.1153 22.7168C40.8863 22.5624 40.5756 22.6228 40.4211 22.8517L39.3028 24.5098C39.1483 24.7387 39.2088 25.0495 39.4377 25.2039V25.2039C39.6666 25.3583 39.9774 25.2979 40.1318 25.069L41.2502 23.4109C41.4046 23.182 41.3442 22.8712 41.1153 22.7168V22.7168Z" fill="black"/>
<circle cx="24" cy="16" r="8" fill="#E94B35"/>
<path fill-rule="evenodd" clip-rule="evenodd" d="M32 20C32 18.904 31.7973 17.6725 31.9571 16.5882C31.9853 16.3962 32 16.1998 32 16C32 13.7909 30.2091 12 28 12C25.7909 12 24 13.7909 24 16C24 18.2091 22.2091 20 20 20C19.3304 20 18.6992 19.8355 18.1446 19.5446C17.2843 19.0933 16 19.0285 16 20V20C16 22.2091 19.5817 24 24 24C28.4183 24 32 22.2091 32 20V20Z" fill="#227FBB"/>
</svg>
