<svg width="48" height="32" viewBox="0 0 48 32" fill="none" xmlns="http://www.w3.org/2000/svg">
<mask id="mask0_0_1407" style="mask-type:alpha" maskUnits="userSpaceOnUse" x="0" y="0" width="48" height="32">
<rect width="48" height="32" rx="5" fill="#D9D9D9"/>
</mask>
<g mask="url(#mask0_0_1407)">
<rect width="48" height="32" fill="#E94B35"/>
<path fill-rule="evenodd" clip-rule="evenodd" d="M24 23.5744L21.6704 27.7118L21.1014 22.9979L17.3658 25.9288L18.6441 21.3559L14.0712 22.6343L17.0022 18.8986L12.2882 18.3297L16.4256 16.0001L12.2882 13.6704L17.0022 13.1015L14.0712 9.36587L18.6441 10.6442L17.3658 6.0713L21.1014 9.00227L21.6704 4.28829L24 8.42571L26.3296 4.28829L26.8986 9.00227L30.6342 6.0713L29.3559 10.6442L33.9288 9.36587L30.9978 13.1015L35.7118 13.6704L31.5744 16.0001L35.7118 18.3297L30.9978 18.8986L33.9288 22.6343L29.3559 21.3559L30.6342 25.9288L26.8986 22.9979L26.3296 27.7118L24 23.5744Z" fill="#F2C500"/>
<circle cx="24" cy="16" r="6" fill="#E94B35"/>
<circle cx="24" cy="16" r="5" fill="#F2C500"/>
</g>
</svg>
