<svg width="48" height="32" viewBox="0 0 48 32" fill="none" xmlns="http://www.w3.org/2000/svg">
<path d="M32 0H44C46.2091 0 48 1.79086 48 4V28C48 30.2091 46.2091 32 44 32H32V0Z" fill="#1AAF5D"/>
<path d="M16 0H32V32H16V0Z" fill="white"/>
<path d="M0 4C0 1.79086 1.79086 0 4 0H16V32H4C1.79086 32 0 30.2091 0 28V4Z" fill="#E94B35"/>
<path d="M20.2959 10.9868C19.7713 11.3303 19.6171 11.82 19.8663 12.3736C19.9739 12.6128 20.1001 12.631 20.674 12.6373C20.7799 12.6384 20.8267 12.6392 20.8845 12.6411C21.2703 12.6536 21.4308 12.7131 21.4473 12.8131C21.4537 12.8519 21.4287 12.9083 21.3466 13.001C21.3117 13.0404 21.2688 13.0833 21.2107 13.1379C21.1786 13.168 21.0589 13.2776 21.0398 13.2954C20.537 13.7618 20.3456 14.1338 20.5373 14.6758C20.6593 15.021 20.9108 15.1581 21.3442 15.2416C21.4022 15.2525 21.4022 15.2525 21.4573 15.2625C21.7116 15.3086 21.7821 15.3392 21.795 15.3783C21.8717 15.6109 21.0471 16.2014 20.7323 16.0898C20.6587 16.0636 20.6349 16.0306 20.5834 15.8763C20.3998 15.3271 20.2572 15.091 19.7577 14.7565C19.6707 14.6983 19.6656 14.6607 19.7117 14.4201C19.7328 14.31 19.7418 14.2532 19.7468 14.1813C19.7744 13.7818 19.5707 13.4841 19.0603 13.2784C18.9322 13.2268 18.7865 13.2888 18.7349 13.4168C18.6833 13.5449 18.7453 13.6905 18.8733 13.7422C19.19 13.8698 19.2601 13.9721 19.248 14.1468C19.2448 14.1924 19.238 14.2352 19.2206 14.326C19.14 14.7467 19.1699 14.9647 19.4795 15.172C19.8674 15.4317 19.9575 15.5808 20.1091 16.0348C20.2046 16.3205 20.3132 16.4717 20.5652 16.561C21.2341 16.7982 22.4925 15.8972 22.2699 15.2218C22.1743 14.9318 21.987 14.8503 21.5464 14.7705C21.4916 14.7606 21.4916 14.7606 21.4388 14.7507C21.1635 14.6976 21.0543 14.638 21.0087 14.5091C20.9033 14.211 21.0085 14.0064 21.3799 13.6619C21.3969 13.6461 21.518 13.5352 21.5529 13.5025C21.6212 13.4383 21.674 13.3854 21.7208 13.3325C21.8928 13.1384 21.9765 12.9496 21.9407 12.7319C21.8683 12.2925 21.5141 12.1613 20.9008 12.1413C20.8381 12.1393 20.7871 12.1385 20.6795 12.1373C20.4376 12.1347 20.298 12.1146 20.3222 12.1684C20.1759 11.8433 20.2474 11.6162 20.5698 11.4051C20.6854 11.3295 20.7177 11.1745 20.642 11.059C20.5664 10.9435 20.4115 10.9112 20.2959 10.9868Z" fill="#78742A"/>
<ellipse cx="22.1113" cy="15.6752" rx="0.776671" ry="0.806788" fill="#F2C500"/>
<rect x="22.5" y="19" width="3" height="1.5" rx="0.5" fill="#E87E04"/>
<ellipse cx="23.4721" cy="17.9755" rx="4.4772" ry="1.72563" fill="#4BB7C0"/>
<ellipse cx="25.2256" cy="17.8603" rx="1.41362" ry="0.697167" fill="#F2C500"/>
<ellipse cx="25.0302" cy="13.6491" rx="4.19289" ry="3.86648" fill="#9C3900"/>
<path d="M17 15C17 18.866 20.134 22 24 22C27.866 22 31 18.866 31 15C31 14.7239 30.7761 14.5 30.5 14.5C30.2239 14.5 30 14.7239 30 15C30 18.3137 27.3137 21 24 21C20.6863 21 18 18.3137 18 15C18 14.7239 17.7761 14.5 17.5 14.5C17.2239 14.5 17 14.7239 17 15Z" fill="#1FCE6D"/>
</svg>
