<svg width="48" height="32" viewBox="0 0 48 32" fill="none" xmlns="http://www.w3.org/2000/svg">
<rect width="48" height="32" rx="5" fill="#1AAF5D"/>
<path fill-rule="evenodd" clip-rule="evenodd" d="M34.1529 8C34.6417 8 35.0589 8.35341 35.1393 8.8356L35.9473 13.6839C35.9816 13.8895 36.0792 14.0792 36.2266 14.2266L36.5 14.5C36.6144 14.6144 36.7998 14.6144 36.9142 14.5C36.9691 14.4451 37 14.3706 37 14.2929V8.5C37 8.22386 37.2239 8 37.5 8C37.7761 8 38 8.22386 38 8.5V17.5035C38 17.9218 37.7396 18.296 37.3473 18.4413L36.8433 18.6279C36.6585 18.6964 36.4531 18.6021 36.3846 18.4172C36.3456 18.3118 36.3585 18.1942 36.4194 18.0998L36.5847 17.8434C36.8228 17.4743 36.7522 16.9862 36.4194 16.6995C36.0911 16.4168 35.6009 16.4324 35.2913 16.7356L34.5052 17.5053C34.2253 17.7794 33.777 17.777 33.5 17.5C33.301 17.301 32.9783 17.301 32.7792 17.5C32.7405 17.5387 32.7083 17.5835 32.6838 17.6325L32.5 18C32.4348 18.1304 32.2763 18.1832 32.1459 18.118C32.0565 18.0733 32 17.9819 32 17.882V17C32 16.4477 32.4477 16 33 16C33.5523 16 34 15.5523 34 15C34 14.6587 33.7233 14.382 33.382 14.382C33.286 14.382 33.1914 14.4043 33.1056 14.4472L32.9823 14.5089C32.8042 14.5979 32.5876 14.5257 32.4985 14.3476C32.4473 14.2451 32.4478 14.1243 32.5 14.0222L32.7299 13.5727C32.8964 13.247 32.8719 12.8564 32.6659 12.5542L32.5 12.3108C32.3916 12.1517 32.4327 11.9348 32.5917 11.8264C32.6719 11.7718 32.7711 11.7531 32.8656 11.7746L33.0087 11.8073C33.4453 11.9069 33.88 11.6338 33.9797 11.1972C33.9932 11.138 34 11.0775 34 11.0168C34 10.4477 33.5523 10 33 10C32.4477 10 32 9.55228 32 9C32 8.44772 32.4477 8 33 8L34.1529 8Z" fill="white"/>
<path fill-rule="evenodd" clip-rule="evenodd" d="M27.1529 18.6503C27.6417 18.6503 28.0589 18.2968 28.1393 17.8147L28.9473 12.9664C28.9816 12.7608 29.0792 12.571 29.2266 12.4237L29.5 12.1503C29.6144 12.0359 29.7998 12.0359 29.9142 12.1503C29.9691 12.2052 30 12.2797 30 12.3574V18.1503C30 18.4264 30.2239 18.6503 30.5 18.6503C30.7761 18.6503 31 18.4264 31 18.1503V9.14673C31 8.72841 30.7396 8.35428 30.3473 8.20899L29.8433 8.02232C29.6585 7.95385 29.4531 8.0482 29.3846 8.23306C29.3456 8.33844 29.3585 8.45605 29.4194 8.55049L29.5847 8.80681C29.8228 9.17594 29.7522 9.6641 29.4194 9.95073C29.0911 10.2335 28.6009 10.2178 28.2913 9.91466L27.5052 9.14496C27.2253 8.87091 26.777 8.87327 26.5 9.15026C26.301 9.34929 25.9783 9.34929 25.7792 9.15026C25.7405 9.11152 25.7083 9.0668 25.6838 9.0178L25.5 8.65026C25.4348 8.51988 25.2763 8.46703 25.1459 8.53222C25.0565 8.57693 25 8.66832 25 8.76829L25 9.65026C25 10.2025 25.4477 10.6503 26 10.6503C26.5523 10.6503 27 11.098 27 11.6503C27 11.9916 26.7233 12.2683 26.382 12.2683C26.286 12.2683 26.1914 12.246 26.1056 12.203L25.9823 12.1414C25.8042 12.0523 25.5876 12.1245 25.4985 12.3026C25.4473 12.4052 25.4478 12.526 25.5 12.628L25.7299 13.0776C25.8964 13.4032 25.8719 13.7938 25.6659 14.0961L25.5 14.3395C25.3916 14.4986 25.4327 14.7154 25.5917 14.8238C25.6719 14.8784 25.7711 14.8972 25.8656 14.8756L26.0087 14.843C26.4453 14.7433 26.88 15.0165 26.9797 15.4531C26.9932 15.5123 27 15.5728 27 15.6335C27 16.2025 26.5523 16.6503 26 16.6503C25.4477 16.6503 25 17.098 25 17.6503C25 18.2025 25.4477 18.6503 26 18.6503H27.1529Z" fill="white"/>
<path fill-rule="evenodd" clip-rule="evenodd" d="M23 8L21.8471 8C21.3583 8 20.9411 8.35341 20.8607 8.8356L20.0527 13.6839C20.0184 13.8895 19.9208 14.0792 19.7734 14.2266L19.5 14.5C19.3856 14.6144 19.2002 14.6144 19.0858 14.5C19.0309 14.4451 19 14.3706 19 14.2929V8.5C19 8.22386 18.7761 8 18.5 8C18.2239 8 18 8.22386 18 8.5L18 17.5035C18 17.9218 18.2604 18.296 18.6527 18.4413L19.1567 18.6279C19.3415 18.6964 19.5469 18.6021 19.6154 18.4172C19.6544 18.3118 19.6415 18.1942 19.5806 18.0998L19.4153 17.8434C19.1772 17.4743 19.2478 16.9862 19.5806 16.6995C19.9089 16.4168 20.3991 16.4324 20.7087 16.7356L21.4948 17.5053C21.7747 17.7794 22.223 17.777 22.5 17.5C22.699 17.301 23.0217 17.301 23.2208 17.5C23.2595 17.5387 23.2917 17.5835 23.3162 17.6325L23.5 18C23.5652 18.1304 23.7237 18.1832 23.8541 18.118C23.9435 18.0733 24 17.9819 24 17.882V17C24 16.4477 23.5523 16 23 16C22.4477 16 22 15.5523 22 15C22 14.6587 22.2767 14.382 22.618 14.382C22.714 14.382 22.8086 14.4043 22.8944 14.4472L23.0177 14.5089C23.1958 14.5979 23.4124 14.5257 23.5015 14.3476C23.5527 14.2451 23.5522 14.1243 23.5 14.0222L23.2701 13.5727C23.1036 13.247 23.1281 12.8564 23.3341 12.5542L23.5 12.3108C23.6084 12.1517 23.5673 11.9348 23.4083 11.8264C23.3281 11.7718 23.2289 11.7531 23.1344 11.7746L22.9913 11.8073C22.5547 11.9069 22.12 11.6338 22.0203 11.1972C22.0068 11.138 22 11.0775 22 11.0168C22 10.4477 22.4477 10 23 10C23.5523 10 24 9.55228 24 9C24 8.44772 23.5523 8 23 8Z" fill="white"/>
<path fill-rule="evenodd" clip-rule="evenodd" d="M13.8198 18.6503C13.3431 18.6503 12.9327 18.3138 12.8392 17.8464L12.0263 13.7816C12.0088 13.6944 11.9799 13.61 11.9401 13.5305L11.5 12.6503C11.4348 12.5199 11.2763 12.467 11.1459 12.5322C11.0565 12.5769 11 12.6683 11 12.7683V18.1503C11 18.4264 10.7761 18.6503 10.5 18.6503C10.2239 18.6503 10 18.4264 10 18.1503L10 9.14673C10 8.72841 10.2604 8.35428 10.6527 8.20899L11.1567 8.02232C11.3415 7.95385 11.5469 8.0482 11.6154 8.23306C11.6544 8.33844 11.6415 8.45605 11.5806 8.55049L11.4153 8.80681C11.1772 9.17594 11.2478 9.6641 11.5806 9.95073C11.9089 10.2335 12.3991 10.2178 12.7087 9.91466L13.4948 9.14496C13.7747 8.87091 14.223 8.87327 14.5 9.15026C14.7761 9.4264 15.2239 9.4264 15.5 9.15026L16 8.65026C16.2288 8.42149 16.5997 8.42149 16.8284 8.65026C16.9383 8.76011 17 8.90911 17 9.06447V9.65026C17 10.2025 16.5523 10.6503 16 10.6503H15C14.4477 10.6503 14 11.098 14 11.6503C14 12.0483 14.3227 12.371 14.7208 12.371C14.7982 12.371 14.8752 12.3585 14.9487 12.334L15.6732 12.0925C15.8418 12.0363 16.0241 12.1275 16.0803 12.2961C16.1193 12.413 16.0881 12.5419 16 12.628L15.4796 13.1369C15.1895 13.4205 15.0995 13.8514 15.252 14.2275L15.6147 15.1226C15.7257 15.3963 15.5937 15.7082 15.3199 15.8192C15.2184 15.8603 15.1068 15.8693 15 15.8449L14.5038 15.7317C14.2819 15.6811 14.061 15.8199 14.0103 16.0418C14.0035 16.0719 14 16.1026 14 16.1335C14 16.4189 14.2314 16.6503 14.5168 16.6503H16C16.5523 16.6503 17 17.098 17 17.6503C17 18.2025 16.5523 18.6503 16 18.6503H13.8198Z" fill="white"/>
<path fill-rule="evenodd" clip-rule="evenodd" d="M11.7243 23H32V21.9014C32 21.635 32.216 21.419 32.4824 21.419C32.5776 21.419 32.6707 21.4472 32.75 21.5L33.0547 21.7032C33.3329 21.8886 33.5 22.2009 33.5 22.5352V23H36.5C36.7761 23 37 23.2239 37 23.5V24.5C37 25.3285 36.3284 26 35.5 26H33C32.4477 26 32 25.5523 32 25H14.2426C13.447 25 12.6839 24.684 12.1213 24.1213L11.5121 23.5122C11.395 23.395 11.395 23.2051 11.5121 23.0879C11.5684 23.0316 11.6447 23 11.7243 23Z" fill="white"/>
</svg>
