<svg width="48" height="32" viewBox="0 0 48 32" fill="none" xmlns="http://www.w3.org/2000/svg">
<path d="M0 5C0 2.23858 2.23858 0 5 0H43C45.7614 0 48 2.23858 48 5V16H0V5Z" fill="#E94B35"/>
<path d="M0 16H48V27C48 29.7614 45.7614 32 43 32H5C2.23858 32 0 29.7614 0 27V16Z" fill="white"/>
<path fill-rule="evenodd" clip-rule="evenodd" d="M12.6856 1.53367C12.4667 1.51141 12.2446 1.5 12.0199 1.5C8.43003 1.5 5.51988 4.41015 5.51988 8C5.51988 11.5899 8.43003 14.5 12.0199 14.5C12.2446 14.5 12.4667 14.4886 12.6856 14.4663C11.8586 14.8102 10.9515 15 10 15C6.13401 15 3 11.866 3 8C3 4.13401 6.13401 1 10 1C10.9515 1 11.8586 1.18983 12.6856 1.53367Z" fill="white"/>
<path fill-rule="evenodd" clip-rule="evenodd" d="M13.5653 4.6L12.6786 5.21353L12.9914 4.18541L12.1306 3.53647L13.2106 3.51459L13.5653 2.5L13.92 3.51459L15 3.53647L14.1392 4.18541L14.452 5.21353L13.5653 4.6ZM9.50851 7.6L8.62182 8.21353L8.93463 7.18541L8.07382 6.53647L9.15383 6.51459L9.50851 5.5L9.86318 6.51459L10.9432 6.53647L10.0824 7.18541L10.3952 8.21353L9.50851 7.6ZM10.1218 12.7135L11.0085 12.1L11.8952 12.7135L11.5824 11.6854L12.4432 11.0365L11.3632 11.0146L11.0085 10L10.6538 11.0146L9.57382 11.0365L10.4346 11.6854L10.1218 12.7135ZM16.0085 12.1L15.1218 12.7135L15.4346 11.6854L14.5738 11.0365L15.6538 11.0146L16.0085 10L16.3632 11.0146L17.4432 11.0365L16.5824 11.6854L16.8952 12.7135L16.0085 12.1ZM16.6218 8.21353L17.5085 7.6L18.3952 8.21353L18.0824 7.18541L18.9432 6.53647L17.8632 6.51459L17.5085 5.5L17.1538 6.51459L16.0738 6.53647L16.9346 7.18541L16.6218 8.21353Z" fill="white"/>
</svg>
