<svg width="48" height="33" viewBox="0 0 48 33" fill="none" xmlns="http://www.w3.org/2000/svg">
<path d="M0 5.43631C0 2.67489 2.23858 0.43631 5 0.43631H43C45.7614 0.43631 48 2.67489 48 5.43631V27.4363C48 30.1977 45.7614 32.4363 43 32.4363H5C2.23858 32.4363 0 30.1977 0 27.4363V5.43631Z" fill="#E94B35"/>
<path d="M0 5.43631C0 2.67489 2.23858 0.43631 5 0.43631H24V16.4363H0V5.43631Z" fill="#227FBB"/>
<path fill-rule="evenodd" clip-rule="evenodd" d="M11.0601 12.3148L8.62105 14.4879L9.28351 11.2891L6.08469 11.9515L8.25782 9.5125L5.15632 8.48681L8.25782 7.46111L6.08469 5.02208L9.28351 5.68455L8.62105 2.48573L11.0601 4.65885L12.0858 1.55736L13.1115 4.65885L15.5505 2.48573L14.888 5.68455L18.0868 5.02208L15.9137 7.46111L19.0152 8.48681L15.9137 9.5125L18.0868 11.9515L14.888 11.2891L15.5505 14.4879L13.1115 12.3148L12.0858 15.4163L11.0601 12.3148Z" fill="white"/>
<circle cx="12" cy="8.43631" r="3.5" fill="#227FBB"/>
<circle cx="12" cy="8.43631" r="3" fill="white"/>
</svg>
