<svg width="48" height="32" viewBox="0 0 48 32" fill="none" xmlns="http://www.w3.org/2000/svg">
<mask id="mask0_0_2423" style="mask-type:alpha" maskUnits="userSpaceOnUse" x="0" y="0" width="48" height="32">
<rect width="48" height="32" rx="5" fill="#D9D9D9"/>
</mask>
<g mask="url(#mask0_0_2423)">
<rect y="10" width="48" height="12" fill="white"/>
<rect y="22" width="48" height="10" fill="#1AAF5D"/>
<rect width="48" height="10" fill="#E94B35"/>
<path fill-rule="evenodd" clip-rule="evenodd" d="M18.7611 17.6347L18.0852 18.105L18.3237 17.3168L17.6674 16.8193L18.4908 16.8025L18.7611 16.0247L19.0315 16.8025L19.8549 16.8193L19.1986 17.3168L19.4371 18.105L18.7611 17.6347Z" fill="#F2C500"/>
<path fill-rule="evenodd" clip-rule="evenodd" d="M19.4697 14.9362L18.7937 15.4065L19.0322 14.6183L18.376 14.1208L19.1993 14.104L19.4697 13.3262L19.7401 14.104L20.5634 14.1208L19.9072 14.6183L20.1457 15.4065L19.4697 14.9362Z" fill="#F2C500"/>
<path fill-rule="evenodd" clip-rule="evenodd" d="M21.3439 12.9147L20.668 13.3851L20.9064 12.5968L20.2502 12.0993L21.0735 12.0825L21.3439 11.3047L21.6143 12.0825L22.4376 12.0993L21.7814 12.5968L22.0199 13.3851L21.3439 12.9147Z" fill="#F2C500"/>
<path fill-rule="evenodd" clip-rule="evenodd" d="M24.0017 12.2306L23.3257 12.701L23.5642 11.9128L22.9079 11.4152L23.7313 11.3985L24.0017 10.6206L24.272 11.3985L25.0954 11.4152L24.4391 11.9128L24.6776 12.701L24.0017 12.2306Z" fill="#F2C500"/>
<path fill-rule="evenodd" clip-rule="evenodd" d="M26.5204 12.9547L25.8444 13.4251L26.0829 12.6369L25.4267 12.1394L26.25 12.1226L26.5204 11.3447L26.7908 12.1226L27.6141 12.1394L26.9579 12.6369L27.1963 13.4251L26.5204 12.9547Z" fill="#F2C500"/>
<path fill-rule="evenodd" clip-rule="evenodd" d="M28.3666 14.9352L27.6907 15.4056L27.9292 14.6173L27.2729 14.1198L28.0963 14.103L28.3666 13.3252L28.637 14.103L29.4604 14.1198L28.8041 14.6173L29.0426 15.4056L28.3666 14.9352Z" fill="#F2C500"/>
<path fill-rule="evenodd" clip-rule="evenodd" d="M29.0837 17.6749L28.4078 18.1453L28.6462 17.3571L27.99 16.8596L28.8133 16.8428L29.0837 16.0649L29.3541 16.8428L30.1774 16.8596L29.5212 17.3571L29.7597 18.1453L29.0837 17.6749Z" fill="#F2C500"/>
<path d="M20.7107 21.4648C21.7721 20.9746 22.8671 20.7313 23.9992 20.7335C25.1324 20.7357 26.2283 20.9792 27.2905 21.4654C27.483 21.5535 27.7104 21.4688 27.7986 21.2763C27.8867 21.0838 27.802 20.8564 27.6095 20.7683C26.4484 20.2368 25.2443 19.9693 24.0007 19.9668C22.7562 19.9644 21.5511 20.2322 20.3893 20.7688C20.1971 20.8576 20.1132 21.0854 20.202 21.2775C20.2908 21.4697 20.5185 21.5536 20.7107 21.4648Z" fill="#F2C500"/>
<path d="M24 18.5273C24.6772 18.9875 25.3947 19.1126 26.1959 18.8135C26.7906 19.4402 27.5488 19.5637 28.3829 19.1621C28.5737 19.0703 28.6539 18.8412 28.5621 18.6505C28.4702 18.4597 28.2411 18.3795 28.0504 18.4714C27.4513 18.7597 27.0123 18.6525 26.6123 18.1196C26.5023 17.973 26.3039 17.9249 26.1389 18.0046C25.4174 18.3534 24.8494 18.2426 24.2406 17.7517C24.1002 17.6384 23.8998 17.6384 23.7594 17.7517C23.1506 18.2426 22.5826 18.3534 21.8611 18.0046C21.6961 17.9249 21.4977 17.973 21.3877 18.1196C20.9876 18.6525 20.5487 18.7597 19.9496 18.4714C19.7588 18.3795 19.5298 18.4597 19.4379 18.6505C19.3461 18.8412 19.4263 19.0703 19.6171 19.1621C20.4511 19.5637 21.2094 19.4402 21.8041 18.8135C22.6052 19.1126 23.3228 18.9875 24 18.5273Z" fill="#F2C500"/>
<path fill-rule="evenodd" clip-rule="evenodd" d="M23.6166 15.0861C23.5039 15.0208 23.373 14.9835 23.2333 14.9835C23.0954 14.9835 22.9661 15.0199 22.8543 15.0836C22.8514 15.0506 22.85 15.0172 22.85 14.9835C22.85 14.3484 23.3648 13.8335 24 13.8335C24.6351 13.8335 25.15 14.3484 25.15 14.9835C25.15 15.0172 25.1485 15.0506 25.1457 15.0836C25.0339 15.0199 24.9045 14.9835 24.7666 14.9835C24.627 14.9835 24.4961 15.0208 24.3833 15.0861V18.4335H23.6166V15.0861V15.0861Z" fill="#F2C500"/>
</g>
</svg>
