<svg width="48" height="32" viewBox="0 0 48 32" fill="none" xmlns="http://www.w3.org/2000/svg">
<mask id="mask0_0_2494" style="mask-type:alpha" maskUnits="userSpaceOnUse" x="0" y="0" width="48" height="32">
<rect width="48" height="32" rx="5" fill="#D9D9D9"/>
</mask>
<g mask="url(#mask0_0_2494)">
<path fill-rule="evenodd" clip-rule="evenodd" d="M0 0V32H48V0H0Z" fill="#1AAF5D"/>
<path fill-rule="evenodd" clip-rule="evenodd" d="M4 0V32H16V0H4Z" fill="#E94B35"/>
<ellipse cx="10" cy="3.5" rx="5" ry="2.5" fill="white"/>
<path fill-rule="evenodd" clip-rule="evenodd" d="M5 3.5C5 2.11929 7.23858 1 10 1V3.5H5ZM10 6C12.7614 6 15 4.88071 15 3.5H10V6Z" fill="#F2C500"/>
<ellipse cx="10" cy="3.50008" rx="2" ry="0.833333" fill="#E94B35"/>
<ellipse cx="10" cy="28.5" rx="5" ry="2.5" fill="white"/>
<path fill-rule="evenodd" clip-rule="evenodd" d="M5 28.5C5 27.1193 7.23858 26 10 26V28.5H5ZM10 31C12.7614 31 15 29.8807 15 28.5H10V31Z" fill="#F2C500"/>
<ellipse cx="10" cy="28.5001" rx="2" ry="0.833333" fill="#E94B35"/>
<ellipse cx="10" cy="10" rx="5" ry="3" fill="#1AAF5D"/>
<path fill-rule="evenodd" clip-rule="evenodd" d="M9 7.06006C8.26112 7.15005 7.58141 7.3378 7 7.59983V12.4003C7.58141 12.6623 8.26112 12.85 9 12.94V7.06006ZM13 12.4003C12.4186 12.6623 11.7389 12.85 11 12.94V7.06006C11.7389 7.15005 12.4186 7.3378 13 7.59983V12.4003Z" fill="#F2C500"/>
<ellipse cx="10" cy="10" rx="3" ry="0.96" fill="#E94B35"/>
<path fill-rule="evenodd" clip-rule="evenodd" d="M10 18.5C12.7614 18.5 15 17.3807 15 16C15 14.6193 12.7614 13.5 10 13.5C7.23858 13.5 5 14.6193 5 16C5 17.3807 7.23858 18.5 10 18.5ZM10 16.625C11.6569 16.625 13 16.3452 13 16C13 15.6548 11.6569 15.375 10 15.375C8.34315 15.375 7 15.6548 7 16C7 16.3452 8.34315 16.625 10 16.625Z" fill="#1AAF5D"/>
<ellipse cx="10" cy="22" rx="5" ry="3" fill="#1AAF5D"/>
<circle cx="10" cy="20.5" r="1" fill="#F2C500"/>
<circle cx="7" cy="22" r="1" fill="#F2C500"/>
<circle cx="10" cy="23.5" r="1" fill="#F2C500"/>
<circle cx="13" cy="22" r="1" fill="#F2C500"/>
<path fill-rule="evenodd" clip-rule="evenodd" d="M24 16.9999C28.4183 16.9999 32 13.4182 32 8.99991C32 7.30158 31.4708 5.72685 30.5683 4.43164C32.6426 5.87706 34 8.27996 34 10.9999C34 15.4182 30.4183 18.9999 26 18.9999C23.2801 18.9999 20.8771 17.6425 19.4317 15.5682C20.7269 16.4707 22.3017 16.9999 24 16.9999Z" fill="white"/>
<path fill-rule="evenodd" clip-rule="evenodd" d="M23.6854 5.07056L23.0365 5.92651L23.0146 4.8526L22 4.49992L23.0146 4.14725L23.0365 3.07334L23.6854 3.92929L24.7135 3.61825L24.1 4.49992L24.7135 5.3816L23.6854 5.07056Z" fill="white"/>
<path fill-rule="evenodd" clip-rule="evenodd" d="M23.6854 9.07056L23.0365 9.92651L23.0146 8.8526L22 8.49992L23.0146 8.14725L23.0365 7.07334L23.6854 7.92929L24.7135 7.61825L24.1 8.49992L24.7135 9.3816L23.6854 9.07056Z" fill="white"/>
<path fill-rule="evenodd" clip-rule="evenodd" d="M23.6854 13.0706L23.0365 13.9265L23.0146 12.8526L22 12.4999L23.0146 12.1473L23.0365 11.0733L23.6854 11.9293L24.7135 11.6182L24.1 12.4999L24.7135 13.3816L23.6854 13.0706Z" fill="white"/>
<path fill-rule="evenodd" clip-rule="evenodd" d="M19.6854 10.0706L19.0365 10.9265L19.0146 9.8526L18 9.49992L19.0146 9.14725L19.0365 8.07334L19.6854 8.92929L20.7135 8.61825L20.1 9.49992L20.7135 10.3816L19.6854 10.0706Z" fill="white"/>
<path fill-rule="evenodd" clip-rule="evenodd" d="M27.6854 8.07056L27.0365 8.92651L27.0146 7.8526L26 7.49992L27.0146 7.14725L27.0365 6.07334L27.6854 6.92929L28.7135 6.61825L28.1 7.49992L28.7135 8.3816L27.6854 8.07056Z" fill="white"/>
</g>
</svg>
