<svg width="48" height="32" viewBox="0 0 48 32" fill="none" xmlns="http://www.w3.org/2000/svg">
<rect width="48" height="32" rx="5" fill="#E94B35"/>
<path fill-rule="evenodd" clip-rule="evenodd" d="M28.6209 8.97068C27.805 8.66635 26.9219 8.5 26 8.5C21.8579 8.5 18.5 11.8579 18.5 16C18.5 20.1421 21.8579 23.5 26 23.5C26.9219 23.5 27.805 23.3336 28.6209 23.0293C27.0807 24.2625 25.1265 25 23 25C18.0294 25 14 20.9706 14 16C14 11.0294 18.0294 7 23 7C25.1265 7 27.0807 7.7375 28.6209 8.97068Z" fill="white"/>
<path fill-rule="evenodd" clip-rule="evenodd" d="M31.5375 17.2275L30.1941 19.7364L29.6917 16.9351L26.8905 16.4328L29.3994 15.0893L29.0115 12.27L31.0645 14.2409L33.626 13.0008L32.3859 15.5624L34.3569 17.6153L31.5375 17.2275Z" fill="white"/>
</svg>
