<svg width="48" height="32" viewBox="0 0 48 32" fill="none" xmlns="http://www.w3.org/2000/svg">
<mask id="mask0_3_3" style="mask-type:alpha" maskUnits="userSpaceOnUse" x="0" y="0" width="48" height="32">
<rect width="48" height="32" rx="5" fill="#D9D9D9"/>
</mask>
<g mask="url(#mask0_3_3)">
<path d="M48 0H0V32H48V0Z" fill="white"/>
<path d="M48 0H24V2.5H48V0Z" fill="#E94B35"/>
<path d="M48 9.83325H24V12.3333H48V9.83325Z" fill="#E94B35"/>
<path fill-rule="evenodd" clip-rule="evenodd" d="M0 19.6667V22.1667H48V19.6667H0Z" fill="#E94B35"/>
<path d="M48 4.91675H24V7.41675H48V4.91675Z" fill="#E94B35"/>
<path fill-rule="evenodd" clip-rule="evenodd" d="M24 14.75V17.25H48V14.75H24Z" fill="#E94B35"/>
<path d="M48 24.5833H0V27.0833H48V24.5833Z" fill="#E94B35"/>
<path d="M48 29.5H0V32H48V29.5Z" fill="#E94B35"/>
<path d="M24 0H0V17.25H24V0Z" fill="#227FBB"/>
<path fill-rule="evenodd" clip-rule="evenodd" d="M2 3L1.41221 3.30902L1.52447 2.65451L1.04894 2.19098L1.70611 2.09549L2 1.5L2.29389 2.09549L2.95106 2.19098L2.47553 2.65451L2.58778 3.30902L2 3Z" fill="white"/>
<path fill-rule="evenodd" clip-rule="evenodd" d="M6 3L5.41221 3.30902L5.52447 2.65451L5.04894 2.19098L5.70611 2.09549L6 1.5L6.29389 2.09549L6.95106 2.19098L6.47553 2.65451L6.58778 3.30902L6 3Z" fill="white"/>
<path fill-rule="evenodd" clip-rule="evenodd" d="M10 3L9.41222 3.30902L9.52448 2.65451L9.04895 2.19098L9.70611 2.09549L10 1.5L10.2939 2.09549L10.9511 2.19098L10.4755 2.65451L10.5878 3.30902L10 3Z" fill="white"/>
<path fill-rule="evenodd" clip-rule="evenodd" d="M14 3L13.4122 3.30902L13.5245 2.65451L13.049 2.19098L13.7061 2.09549L14 1.5L14.2939 2.09549L14.9511 2.19098L14.4755 2.65451L14.5878 3.30902L14 3Z" fill="white"/>
<path fill-rule="evenodd" clip-rule="evenodd" d="M18 3L17.4122 3.30902L17.5245 2.65451L17.0489 2.19098L17.7061 2.09549L18 1.5L18.2939 2.09549L18.951 2.19098L18.4755 2.65451L18.5878 3.30902L18 3Z" fill="white"/>
<path fill-rule="evenodd" clip-rule="evenodd" d="M18 3L17.4122 3.30902L17.5245 2.65451L17.0489 2.19098L17.7061 2.09549L18 1.5L18.2939 2.09549L18.951 2.19098L18.4755 2.65451L18.5878 3.30902L18 3Z" fill="white"/>
<path fill-rule="evenodd" clip-rule="evenodd" d="M20 6L19.4122 6.30902L19.5245 5.65451L19.049 5.19098L19.7061 5.09549L20 4.5L20.2939 5.09549L20.9511 5.19098L20.4755 5.65451L20.5878 6.30902L20 6Z" fill="white"/>
<path fill-rule="evenodd" clip-rule="evenodd" d="M4 6L3.41221 6.30902L3.52447 5.65451L3.04894 5.19098L3.70611 5.09549L4 4.5L4.29389 5.09549L4.95106 5.19098L4.47553 5.65451L4.58778 6.30902L4 6Z" fill="white"/>
<path fill-rule="evenodd" clip-rule="evenodd" d="M8 6L7.41221 6.30902L7.52447 5.65451L7.04894 5.19098L7.70611 5.09549L8 4.5L8.29389 5.09549L8.95106 5.19098L8.47553 5.65451L8.58778 6.30902L8 6Z" fill="white"/>
<path fill-rule="evenodd" clip-rule="evenodd" d="M12 6L11.4122 6.30902L11.5245 5.65451L11.049 5.19098L11.7061 5.09549L12 4.5L12.2939 5.09549L12.9511 5.19098L12.4755 5.65451L12.5878 6.30902L12 6Z" fill="white"/>
<path fill-rule="evenodd" clip-rule="evenodd" d="M16 6L15.4122 6.30902L15.5245 5.65451L15.049 5.19098L15.7061 5.09549L16 4.5L16.2939 5.09549L16.9511 5.19098L16.4755 5.65451L16.5878 6.30902L16 6Z" fill="white"/>
<path fill-rule="evenodd" clip-rule="evenodd" d="M22 3L21.4122 3.30902L21.5245 2.65451L21.049 2.19098L21.7061 2.09549L22 1.5L22.2939 2.09549L22.9511 2.19098L22.4755 2.65451L22.5878 3.30902L22 3Z" fill="white"/>
<path fill-rule="evenodd" clip-rule="evenodd" d="M2 9L1.41221 9.30902L1.52447 8.65451L1.04894 8.19098L1.70611 8.09549L2 7.5L2.29389 8.09549L2.95106 8.19098L2.47553 8.65451L2.58778 9.30902L2 9Z" fill="white"/>
<path fill-rule="evenodd" clip-rule="evenodd" d="M6 9L5.41221 9.30902L5.52447 8.65451L5.04894 8.19098L5.70611 8.09549L6 7.5L6.29389 8.09549L6.95106 8.19098L6.47553 8.65451L6.58778 9.30902L6 9Z" fill="white"/>
<path fill-rule="evenodd" clip-rule="evenodd" d="M10 9L9.41222 9.30902L9.52448 8.65451L9.04895 8.19098L9.70611 8.09549L10 7.5L10.2939 8.09549L10.9511 8.19098L10.4755 8.65451L10.5878 9.30902L10 9Z" fill="white"/>
<path fill-rule="evenodd" clip-rule="evenodd" d="M14 9L13.4122 9.30902L13.5245 8.65451L13.049 8.19098L13.7061 8.09549L14 7.5L14.2939 8.09549L14.9511 8.19098L14.4755 8.65451L14.5878 9.30902L14 9Z" fill="white"/>
<path fill-rule="evenodd" clip-rule="evenodd" d="M18 9L17.4122 9.30902L17.5245 8.65451L17.0489 8.19098L17.7061 8.09549L18 7.5L18.2939 8.09549L18.951 8.19098L18.4755 8.65451L18.5878 9.30902L18 9Z" fill="white"/>
<path fill-rule="evenodd" clip-rule="evenodd" d="M18 9L17.4122 9.30902L17.5245 8.65451L17.0489 8.19098L17.7061 8.09549L18 7.5L18.2939 8.09549L18.951 8.19098L18.4755 8.65451L18.5878 9.30902L18 9Z" fill="white"/>
<path fill-rule="evenodd" clip-rule="evenodd" d="M20 12L19.4122 12.309L19.5245 11.6545L19.049 11.191L19.7061 11.0955L20 10.5L20.2939 11.0955L20.9511 11.191L20.4755 11.6545L20.5878 12.309L20 12Z" fill="white"/>
<path fill-rule="evenodd" clip-rule="evenodd" d="M4 12L3.41221 12.309L3.52447 11.6545L3.04894 11.191L3.70611 11.0955L4 10.5L4.29389 11.0955L4.95106 11.191L4.47553 11.6545L4.58778 12.309L4 12Z" fill="white"/>
<path fill-rule="evenodd" clip-rule="evenodd" d="M8 12L7.41221 12.309L7.52447 11.6545L7.04894 11.191L7.70611 11.0955L8 10.5L8.29389 11.0955L8.95106 11.191L8.47553 11.6545L8.58778 12.309L8 12Z" fill="white"/>
<path fill-rule="evenodd" clip-rule="evenodd" d="M12 12L11.4122 12.309L11.5245 11.6545L11.049 11.191L11.7061 11.0955L12 10.5L12.2939 11.0955L12.9511 11.191L12.4755 11.6545L12.5878 12.309L12 12Z" fill="white"/>
<path fill-rule="evenodd" clip-rule="evenodd" d="M16 12L15.4122 12.309L15.5245 11.6545L15.049 11.191L15.7061 11.0955L16 10.5L16.2939 11.0955L16.9511 11.191L16.4755 11.6545L16.5878 12.309L16 12Z" fill="white"/>
<path fill-rule="evenodd" clip-rule="evenodd" d="M22 9L21.4122 9.30902L21.5245 8.65451L21.049 8.19098L21.7061 8.09549L22 7.5L22.2939 8.09549L22.9511 8.19098L22.4755 8.65451L22.5878 9.30902L22 9Z" fill="white"/>
<path fill-rule="evenodd" clip-rule="evenodd" d="M2 15L1.41221 15.309L1.52447 14.6545L1.04894 14.191L1.70611 14.0955L2 13.5L2.29389 14.0955L2.95106 14.191L2.47553 14.6545L2.58778 15.309L2 15Z" fill="white"/>
<path fill-rule="evenodd" clip-rule="evenodd" d="M6 15L5.41221 15.309L5.52447 14.6545L5.04894 14.191L5.70611 14.0955L6 13.5L6.29389 14.0955L6.95106 14.191L6.47553 14.6545L6.58778 15.309L6 15Z" fill="white"/>
<path fill-rule="evenodd" clip-rule="evenodd" d="M10 15L9.41222 15.309L9.52448 14.6545L9.04895 14.191L9.70611 14.0955L10 13.5L10.2939 14.0955L10.9511 14.191L10.4755 14.6545L10.5878 15.309L10 15Z" fill="white"/>
<path fill-rule="evenodd" clip-rule="evenodd" d="M14 15L13.4122 15.309L13.5245 14.6545L13.049 14.191L13.7061 14.0955L14 13.5L14.2939 14.0955L14.9511 14.191L14.4755 14.6545L14.5878 15.309L14 15Z" fill="white"/>
<path fill-rule="evenodd" clip-rule="evenodd" d="M18 15L17.4122 15.309L17.5245 14.6545L17.0489 14.191L17.7061 14.0955L18 13.5L18.2939 14.0955L18.951 14.191L18.4755 14.6545L18.5878 15.309L18 15Z" fill="white"/>
<path fill-rule="evenodd" clip-rule="evenodd" d="M18 15L17.4122 15.309L17.5245 14.6545L17.0489 14.191L17.7061 14.0955L18 13.5L18.2939 14.0955L18.951 14.191L18.4755 14.6545L18.5878 15.309L18 15Z" fill="white"/>
<path fill-rule="evenodd" clip-rule="evenodd" d="M22 15L21.4122 15.309L21.5245 14.6545L21.049 14.191L21.7061 14.0955L22 13.5L22.2939 14.0955L22.9511 14.191L22.4755 14.6545L22.5878 15.309L22 15Z" fill="white"/>
</g>
</svg>
