<svg width="159" height="28" viewBox="0 0 159 28" fill="none" xmlns="http://www.w3.org/2000/svg">
<path d="M24.75 21.875C24.75 23.739 23.239 25.25 21.375 25.25C19.511 25.25 18 23.739 18 21.875C18 20.011 19.511 18.5 21.375 18.5C23.239 18.5 24.75 20.011 24.75 21.875Z" fill="url(#paint0_linear_5204_104561)"/>
<path fill-rule="evenodd" clip-rule="evenodd" d="M17.4375 5C15.8842 5 14.625 6.2592 14.625 7.8125V20.1875C14.625 22.9834 12.3584 25.25 9.5625 25.25C6.76656 25.25 4.5 22.9834 4.5 20.1875V11.75C4.5 11.1287 5.00368 10.625 5.625 10.625C6.24632 10.625 6.75 11.1287 6.75 11.75V20.1875C6.75 21.7408 8.0092 23 9.5625 23C11.1158 23 12.375 21.7408 12.375 20.1875V7.8125C12.375 5.01656 14.6416 2.75 17.4375 2.75C20.2334 2.75 22.5 5.01656 22.5 7.8125V15.125C22.5 15.7463 21.9963 16.25 21.375 16.25C20.7537 16.25 20.25 15.7463 20.25 15.125V7.8125C20.25 6.2592 18.9908 5 17.4375 5Z" fill="url(#paint1_linear_5204_104561)"/>
<path d="M4.65331 3.29057C5.08742 2.54637 6.1627 2.54637 6.59681 3.29057L8.57564 6.68285C9.01314 7.43284 8.47216 8.37471 7.60389 8.37471H3.64623C2.77796 8.37471 2.23698 7.43284 2.67447 6.68285L4.65331 3.29057Z" fill="url(#paint2_linear_5204_104561)"/>
<path d="M42.4309 23.5H36.6781L43.1596 3.86364H50.4466L56.9281 23.5H51.1752L46.8798 9.27131H46.7264L42.4309 23.5ZM41.3571 15.7528H52.1724V19.7415H41.3571V15.7528ZM58.8193 23.5V3.86364H64.1119V11.3423H64.1887C64.3804 10.8437 64.6617 10.3867 65.0324 9.97123C65.4031 9.54936 65.8634 9.21378 66.4131 8.96449C66.9628 8.70881 67.602 8.58097 68.3307 8.58097C69.3023 8.58097 70.2259 8.83984 71.1017 9.3576C71.9838 9.87535 72.6997 10.6903 73.2494 11.8026C73.8055 12.9148 74.0835 14.3594 74.0835 16.1364C74.0835 17.8366 73.8183 19.2461 73.2877 20.3647C72.7636 21.4833 72.0605 22.3175 71.1784 22.8672C70.3026 23.4169 69.3406 23.6918 68.2923 23.6918C67.602 23.6918 66.9852 23.5799 66.4419 23.3562C65.9049 23.1261 65.4447 22.8161 65.0612 22.4261C64.684 22.0298 64.3932 21.5824 64.1887 21.0838H64.0736V23.5H58.8193ZM63.9969 16.1364C63.9969 16.8523 64.0896 17.4723 64.2749 17.9964C64.4667 18.5142 64.7352 18.9169 65.0803 19.2045C65.4319 19.4858 65.8506 19.6264 66.3364 19.6264C66.8222 19.6264 67.2345 19.489 67.5732 19.2141C67.9184 18.9329 68.1805 18.5334 68.3595 18.0156C68.5448 17.4915 68.6375 16.8651 68.6375 16.1364C68.6375 15.4077 68.5448 14.7844 68.3595 14.2667C68.1805 13.7425 67.9184 13.343 67.5732 13.0682C67.2345 12.7869 66.8222 12.6463 66.3364 12.6463C65.8506 12.6463 65.4319 12.7869 65.0803 13.0682C64.7352 13.343 64.4667 13.7425 64.2749 14.2667C64.0896 14.7844 63.9969 15.4077 63.9969 16.1364ZM89.76 13.5668H84.8893C84.8637 13.2663 84.7583 13.0075 84.5729 12.7901C84.3875 12.5728 84.1478 12.4066 83.8538 12.2915C83.5661 12.1701 83.2465 12.1094 82.895 12.1094C82.4411 12.1094 82.0512 12.1925 81.7252 12.3587C81.3992 12.5249 81.2394 12.7614 81.2458 13.0682C81.2394 13.2855 81.3321 13.4869 81.5239 13.6722C81.722 13.8576 82.1024 14.0014 82.6649 14.1037L85.6563 14.6406C87.1649 14.9155 88.2867 15.3789 89.0218 16.0309C89.7632 16.6765 90.1372 17.5426 90.1436 18.6293C90.1372 19.6776 89.824 20.5884 89.2039 21.3619C88.5903 22.1289 87.7497 22.7234 86.6823 23.1452C85.6212 23.5607 84.4099 23.7685 83.0484 23.7685C80.7984 23.7685 79.0374 23.3082 77.7654 22.3878C76.4997 21.4673 75.7934 20.2528 75.6464 18.7443H80.9007C80.971 19.2109 81.2011 19.5721 81.591 19.8278C81.9873 20.0771 82.4859 20.2017 83.0867 20.2017C83.5725 20.2017 83.972 20.1186 84.2852 19.9524C84.6048 19.7862 84.7678 19.5497 84.7742 19.2429C84.7678 18.9616 84.6272 18.7379 84.3524 18.5717C84.0839 18.4055 83.662 18.2713 83.0867 18.169L80.4788 17.7088C78.9767 17.4467 77.8517 16.9482 77.1038 16.2131C76.3559 15.478 75.9852 14.532 75.9916 13.375C75.9852 12.3523 76.2536 11.4862 76.797 10.7766C77.3467 10.0607 78.1297 9.5174 79.146 9.14666C80.1688 8.76953 81.3801 8.58097 82.7799 8.58097C84.9085 8.58097 86.5864 9.02202 87.8137 9.90412C89.0473 10.7862 89.6961 12.0071 89.76 13.5668ZM99.2666 23.7685C97.6686 23.7685 96.3007 23.4521 95.1629 22.8192C94.0251 22.18 93.1526 21.2915 92.5454 20.1538C91.9381 19.0096 91.6345 17.6832 91.6345 16.1747C91.6345 14.6662 91.9381 13.343 92.5454 12.2053C93.1526 11.0611 94.0251 10.1726 95.1629 9.53977C96.3007 8.90057 97.6686 8.58097 99.2666 8.58097C100.711 8.58097 101.961 8.84304 103.016 9.36719C104.077 9.88494 104.898 10.62 105.48 11.5724C106.061 12.5185 106.355 13.6307 106.362 14.9091H101.453C101.382 14.1357 101.159 13.5476 100.782 13.1449C100.411 12.7358 99.9314 12.5312 99.3433 12.5312C98.8831 12.5312 98.4804 12.6655 98.1352 12.9339C97.79 13.196 97.5216 13.5955 97.3298 14.1325C97.1381 14.663 97.0422 15.331 97.0422 16.1364C97.0422 16.9418 97.1381 17.6129 97.3298 18.1499C97.5216 18.6804 97.79 19.0799 98.1352 19.3484C98.4804 19.6104 98.8831 19.7415 99.3433 19.7415C99.7332 19.7415 100.078 19.652 100.379 19.473C100.679 19.2876 100.922 19.0192 101.108 18.6676C101.299 18.3097 101.414 17.875 101.453 17.3636H106.362C106.343 18.6612 106.045 19.7926 105.47 20.7578C104.895 21.7166 104.08 22.4581 103.025 22.9822C101.977 23.5064 100.724 23.7685 99.2666 23.7685ZM115.641 23.7685C114.043 23.7685 112.675 23.4521 111.537 22.8192C110.399 22.18 109.527 21.2915 108.919 20.1538C108.312 19.0096 108.009 17.6832 108.009 16.1747C108.009 14.6662 108.312 13.343 108.919 12.2053C109.527 11.0611 110.399 10.1726 111.537 9.53977C112.675 8.90057 114.043 8.58097 115.641 8.58097C117.239 8.58097 118.607 8.90057 119.744 9.53977C120.882 10.1726 121.755 11.0611 122.362 12.2053C122.969 13.343 123.273 14.6662 123.273 16.1747C123.273 17.6832 122.969 19.0096 122.362 20.1538C121.755 21.2915 120.882 22.18 119.744 22.8192C118.607 23.4521 117.239 23.7685 115.641 23.7685ZM115.679 19.8565C116.126 19.8565 116.513 19.7063 116.839 19.4059C117.165 19.1055 117.418 18.6772 117.597 18.1211C117.776 17.565 117.865 16.9034 117.865 16.1364C117.865 15.3629 117.776 14.7013 117.597 14.1516C117.418 13.5955 117.165 13.1673 116.839 12.8668C116.513 12.5664 116.126 12.4162 115.679 12.4162C115.206 12.4162 114.8 12.5664 114.461 12.8668C114.123 13.1673 113.864 13.5955 113.685 14.1516C113.506 14.7013 113.416 15.3629 113.416 16.1364C113.416 16.9034 113.506 17.565 113.685 18.1211C113.864 18.6772 114.123 19.1055 114.461 19.4059C114.8 19.7063 115.206 19.8565 115.679 19.8565ZM130.713 15.2159V23.5H125.42V8.77273H130.445V11.5724H130.598C130.918 10.6392 131.48 9.90732 132.286 9.37678C133.097 8.84624 134.043 8.58097 135.124 8.58097C136.165 8.58097 137.07 8.82067 137.837 9.30007C138.61 9.77308 139.208 10.4251 139.63 11.256C140.058 12.087 140.269 13.0362 140.263 14.1037V23.5H134.97V15.2159C134.977 14.4872 134.791 13.9151 134.414 13.4996C134.043 13.0842 133.526 12.8764 132.861 12.8764C132.426 12.8764 132.046 12.9723 131.72 13.1641C131.4 13.3494 131.154 13.6179 130.982 13.9695C130.809 14.3146 130.719 14.7301 130.713 15.2159ZM148.206 23.6918C147.158 23.6918 146.193 23.4169 145.311 22.8672C144.435 22.3175 143.732 21.4833 143.202 20.3647C142.677 19.2461 142.415 17.8366 142.415 16.1364C142.415 14.3594 142.69 12.9148 143.24 11.8026C143.796 10.6903 144.512 9.87535 145.388 9.3576C146.27 8.83984 147.197 8.58097 148.168 8.58097C148.897 8.58097 149.536 8.70881 150.086 8.96449C150.635 9.21378 151.096 9.54936 151.466 9.97123C151.837 10.3867 152.118 10.8437 152.31 11.3423H152.387V3.86364H157.68V23.5H152.425V21.0838H152.31C152.106 21.5824 151.812 22.0298 151.428 22.4261C151.051 22.8161 150.591 23.1261 150.047 23.3562C149.51 23.5799 148.897 23.6918 148.206 23.6918ZM150.162 19.6264C150.648 19.6264 151.064 19.4858 151.409 19.2045C151.76 18.9169 152.029 18.5142 152.214 17.9964C152.406 17.4723 152.502 16.8523 152.502 16.1364C152.502 15.4077 152.406 14.7844 152.214 14.2667C152.029 13.7425 151.76 13.343 151.409 13.0682C151.064 12.7869 150.648 12.6463 150.162 12.6463C149.677 12.6463 149.261 12.7869 148.916 13.0682C148.577 13.343 148.315 13.7425 148.13 14.2667C147.951 14.7844 147.861 15.4077 147.861 16.1364C147.861 16.8651 147.951 17.4915 148.13 18.0156C148.315 18.5334 148.577 18.9329 148.916 19.2141C149.261 19.489 149.677 19.6264 150.162 19.6264Z" fill="#FCFCFD"/>
<defs>
<linearGradient id="paint0_linear_5204_104561" x1="21.375" y1="18.5" x2="21.375" y2="25.25" gradientUnits="userSpaceOnUse">
<stop stop-color="#AA8CFF"/>
<stop offset="1" stop-color="#BD8BFE"/>
</linearGradient>
<linearGradient id="paint1_linear_5204_104561" x1="13.5" y1="2.75" x2="13.5" y2="25.25" gradientUnits="userSpaceOnUse">
<stop stop-color="#AA8CFF"/>
<stop offset="1" stop-color="#BD8BFE"/>
</linearGradient>
<linearGradient id="paint2_linear_5204_104561" x1="5.62506" y1="2.73242" x2="5.62506" y2="8.37471" gradientUnits="userSpaceOnUse">
<stop stop-color="#AA8CFF"/>
<stop offset="1" stop-color="#BD8BFE"/>
</linearGradient>
</defs>
</svg>
