<svg width="114" height="30" viewBox="0 0 114 30" fill="none" xmlns="http://www.w3.org/2000/svg">
<path d="M5.32038 5.48568L3.67731 9.10306C3.63855 9.14114 3.61553 9.17552 3.6121 9.18064C3.61192 9.18091 3.61179 9.1811 3.61172 9.1812C3.58099 9.22584 3.55289 9.28245 3.53901 9.31042L3.53897 9.31049C3.46184 9.46589 3.3138 9.79907 3.16376 10.1789C3.08439 10.3798 3.00183 10.6004 2.92758 10.8202L0.778216 15.9397C0.62149 16.313 0.524298 16.6529 0.504011 16.9407C0.486275 17.1923 0.518535 17.5903 0.858636 17.8094C1.19874 18.0285 1.57447 17.8933 1.79624 17.7731C2.0499 17.6356 2.3192 17.4066 2.59429 17.1096L2.5944 17.1096L2.60215 17.1009L6.37089 12.8354C6.41775 12.7847 6.46203 12.7352 6.50276 12.6872C6.54225 12.7381 6.58617 12.789 6.63299 12.8396L6.63859 12.8456L6.64439 12.8515L10.697 16.9516C10.9707 17.2465 11.2397 17.4738 11.4946 17.61C11.7225 17.7319 12.0959 17.8595 12.4342 17.6438C12.7725 17.4282 12.8145 17.0358 12.8002 16.7777C12.7842 16.4872 12.6905 16.1446 12.5368 15.769L10.1035 9.82286C10.1036 9.81946 10.1034 9.81661 10.1028 9.81435C10.0992 9.80444 10.0939 9.79069 10.0922 9.78671L10.0876 9.77607L10.0857 9.77179L10.0786 9.75616L10.0543 9.70273L9.92875 9.39589L9.91532 9.40139L9.92875 9.39589C9.87688 9.26914 9.8179 9.14505 9.74704 9.03673L8.10832 5.48568C8.10809 5.48519 8.10787 5.48469 8.10764 5.4842C7.83164 4.87781 7.3083 4.5 6.71435 4.5C6.11991 4.5 5.5962 4.87843 5.32038 5.48568C5.32038 5.48568 5.32038 5.48568 5.32038 5.48568ZM3.85708 9.89787L3.86402 9.90103L3.85708 9.89787ZM3.90358 9.7871L3.91382 9.7914L3.90358 9.7871ZM8.56556 8.99973C8.55264 9.01879 8.54122 9.03694 8.53119 9.05362C8.52302 9.00019 8.51544 8.94869 8.50843 8.89908C8.52753 8.93237 8.54659 8.96596 8.56556 8.99973ZM7.93794 8.08089C7.93924 8.08171 7.94173 8.08349 7.94544 8.08647C7.94176 8.08421 7.93925 8.08243 7.93794 8.08138C7.93794 8.08122 7.93794 8.08105 7.93794 8.08089ZM6.71434 29.5C8.64734 29.5 10.2143 27.933 10.2143 26C10.2143 24.067 8.64734 22.5 6.71434 22.5C4.78135 22.5 3.21434 24.067 3.21434 26C3.21434 27.933 4.78135 29.5 6.71434 29.5Z" fill="url(#paint0_linear_238_38)" stroke="url(#paint1_linear_238_38)" stroke-linecap="round"/>
<path d="M18.4403 28V24.3636H18.8807V25.983H20.8196V24.3636H21.2599V28H20.8196V26.3736H18.8807V28H18.4403ZM22.0165 28V24.3636H24.2111V24.7543H22.4569V25.983H24.0975V26.3736H22.4569V27.6094H24.2395V28H22.0165ZM25.0289 28H24.5673L25.9025 24.3636H26.3571L27.6923 28H27.2306L26.144 24.9389H26.1156L25.0289 28ZM25.1994 26.5795H27.0602V26.9702H25.1994V26.5795ZM27.9411 24.3636L29.0206 27.4247H29.0632L30.1428 24.3636H30.6044L29.2692 28H28.8146L27.4794 24.3636H27.9411ZM30.7333 24.3636H31.2376L32.2461 26.0611H32.2887L33.2972 24.3636H33.8015L32.4876 26.5014V28H32.0472V26.5014L30.7333 24.3636ZM35.5273 28V24.3636H35.9676V27.6094H37.6579V28H35.5273ZM41.1413 26.1818C41.1413 26.5653 41.0721 26.8968 40.9336 27.1761C40.7951 27.4555 40.6051 27.6709 40.3636 27.8224C40.1222 27.974 39.8464 28.0497 39.5362 28.0497C39.2261 28.0497 38.9503 27.974 38.7088 27.8224C38.4673 27.6709 38.2773 27.4555 38.1388 27.1761C38.0004 26.8968 37.9311 26.5653 37.9311 26.1818C37.9311 25.7983 38.0004 25.4669 38.1388 25.1875C38.2773 24.9081 38.4673 24.6927 38.7088 24.5412C38.9503 24.3897 39.2261 24.3139 39.5362 24.3139C39.8464 24.3139 40.1222 24.3897 40.3636 24.5412C40.6051 24.6927 40.7951 24.9081 40.9336 25.1875C41.0721 25.4669 41.1413 25.7983 41.1413 26.1818ZM40.7152 26.1818C40.7152 25.867 40.6625 25.6012 40.5572 25.3846C40.453 25.168 40.3116 25.004 40.1328 24.8928C39.9553 24.7815 39.7564 24.7259 39.5362 24.7259C39.3161 24.7259 39.1166 24.7815 38.9379 24.8928C38.7603 25.004 38.6188 25.168 38.5135 25.3846C38.4093 25.6012 38.3572 25.867 38.3572 26.1818C38.3572 26.4967 38.4093 26.7624 38.5135 26.979C38.6188 27.1957 38.7603 27.3596 38.9379 27.4709C39.1166 27.5821 39.3161 27.6378 39.5362 27.6378C39.7564 27.6378 39.9553 27.5821 40.1328 27.4709C40.3116 27.3596 40.453 27.1957 40.5572 26.979C40.6625 26.7624 40.7152 26.4967 40.7152 26.1818ZM44.2425 25.5C44.2035 25.3804 44.152 25.2733 44.0881 25.1786C44.0253 25.0827 43.9502 25.0011 43.8626 24.9336C43.7762 24.8661 43.6779 24.8146 43.5678 24.7791C43.4577 24.7436 43.337 24.7259 43.2056 24.7259C42.9902 24.7259 42.7943 24.7815 42.6179 24.8928C42.4415 25.004 42.3013 25.168 42.1971 25.3846C42.0929 25.6012 42.0408 25.867 42.0408 26.1818C42.0408 26.4967 42.0935 26.7624 42.1989 26.979C42.3042 27.1957 42.4469 27.3596 42.6268 27.4709C42.8067 27.5821 43.0091 27.6378 43.234 27.6378C43.4424 27.6378 43.6258 27.5934 43.7844 27.5046C43.9442 27.4147 44.0685 27.288 44.1573 27.1246C44.2473 26.9601 44.2923 26.7666 44.2923 26.544L44.4272 26.5724H43.3335V26.1818H44.7184V26.5724C44.7184 26.8719 44.6545 27.1323 44.5266 27.3537C44.4 27.575 44.2248 27.7467 44.0011 27.8686C43.7785 27.9893 43.5228 28.0497 43.234 28.0497C42.9121 28.0497 42.6291 27.974 42.3853 27.8224C42.1426 27.6709 41.9532 27.4555 41.8171 27.1761C41.6822 26.8968 41.6147 26.5653 41.6147 26.1818C41.6147 25.8942 41.6532 25.6355 41.7301 25.4059C41.8082 25.1751 41.9183 24.9786 42.0604 24.8164C42.2024 24.6542 42.3705 24.5299 42.5646 24.4435C42.7588 24.3571 42.9724 24.3139 43.2056 24.3139C43.3974 24.3139 43.5761 24.3429 43.7418 24.4009C43.9087 24.4577 44.0573 24.5388 44.1875 24.6442C44.3189 24.7483 44.4284 24.8732 44.516 25.0188C44.6036 25.1632 44.6639 25.3236 44.6971 25.5H44.2425ZM45.7879 24.3636V28H45.3476V24.3636H45.7879ZM48.5344 25.2727C48.5131 25.0928 48.4267 24.9531 48.2752 24.8537C48.1237 24.7543 47.9379 24.7045 47.7177 24.7045C47.5567 24.7045 47.4158 24.7306 47.2951 24.7827C47.1755 24.8348 47.082 24.9064 47.0146 24.9975C46.9483 25.0887 46.9151 25.1922 46.9151 25.3082C46.9151 25.4053 46.9382 25.4888 46.9844 25.5586C47.0317 25.6272 47.0921 25.6847 47.1655 25.7308C47.2389 25.7758 47.3158 25.8131 47.3963 25.8427C47.4768 25.8711 47.5508 25.8942 47.6183 25.9119L47.9876 26.0114C48.0823 26.0362 48.1876 26.0705 48.3036 26.1143C48.4208 26.1581 48.5327 26.2179 48.6392 26.2937C48.7469 26.3683 48.8357 26.4641 48.9055 26.5813C48.9754 26.6985 49.0103 26.8423 49.0103 27.0128C49.0103 27.2093 48.9588 27.3868 48.8558 27.5455C48.754 27.7041 48.6049 27.8301 48.4084 27.9237C48.2131 28.0172 47.9757 28.0639 47.6964 28.0639C47.436 28.0639 47.2105 28.0219 47.0199 27.9379C46.8305 27.8538 46.6813 27.7366 46.5724 27.5863C46.4647 27.436 46.4038 27.2614 46.3896 27.0625H46.8441C46.8559 27.1998 46.9021 27.3134 46.9826 27.4034C47.0643 27.4922 47.1673 27.5585 47.2915 27.6023C47.417 27.6449 47.552 27.6662 47.6964 27.6662C47.8645 27.6662 48.0154 27.639 48.1491 27.5845C48.2829 27.5289 48.3888 27.4519 48.467 27.3537C48.5451 27.2543 48.5842 27.1383 48.5842 27.0057C48.5842 26.8849 48.5504 26.7867 48.483 26.7109C48.4155 26.6352 48.3267 26.5736 48.2166 26.5263C48.1065 26.4789 47.9876 26.4375 47.8597 26.402L47.4123 26.2741C47.1282 26.1925 46.9033 26.0759 46.7376 25.9244C46.5719 25.7728 46.489 25.5746 46.489 25.3295C46.489 25.1259 46.544 24.9484 46.6541 24.7969C46.7654 24.6442 46.9145 24.5258 47.1016 24.4418C47.2898 24.3565 47.4999 24.3139 47.7319 24.3139C47.9663 24.3139 48.1746 24.3559 48.3569 24.44C48.5392 24.5228 48.6836 24.6365 48.7901 24.7809C48.8978 24.9253 48.9547 25.0893 48.9606 25.2727H48.5344ZM49.4104 24.7543V24.3636H52.1377V24.7543H50.9942V28H50.5539V24.7543H49.4104ZM53.1326 24.3636V28H52.6923V24.3636H53.1326ZM56.8167 25.5H56.3763C56.3503 25.3733 56.3047 25.2621 56.2396 25.1662C56.1757 25.0703 56.0976 24.9898 56.0052 24.9247C55.9141 24.8584 55.8129 24.8087 55.7016 24.7756C55.5903 24.7424 55.4743 24.7259 55.3536 24.7259C55.1334 24.7259 54.934 24.7815 54.7552 24.8928C54.5777 25.004 54.4362 25.168 54.3309 25.3846C54.2267 25.6012 54.1746 25.867 54.1746 26.1818C54.1746 26.4967 54.2267 26.7624 54.3309 26.979C54.4362 27.1957 54.5777 27.3596 54.7552 27.4709C54.934 27.5821 55.1334 27.6378 55.3536 27.6378C55.4743 27.6378 55.5903 27.6212 55.7016 27.5881C55.8129 27.5549 55.9141 27.5058 56.0052 27.4407C56.0976 27.3744 56.1757 27.2933 56.2396 27.1974C56.3047 27.1004 56.3503 26.9891 56.3763 26.8636H56.8167C56.7835 27.0495 56.7232 27.2158 56.6356 27.3626C56.548 27.5094 56.4391 27.6342 56.3089 27.7372C56.1787 27.839 56.0325 27.9165 55.8703 27.9698C55.7093 28.0231 55.5371 28.0497 55.3536 28.0497C55.0435 28.0497 54.7677 27.974 54.5262 27.8224C54.2847 27.6709 54.0947 27.4555 53.9562 27.1761C53.8177 26.8968 53.7485 26.5653 53.7485 26.1818C53.7485 25.7983 53.8177 25.4669 53.9562 25.1875C54.0947 24.9081 54.2847 24.6927 54.5262 24.5412C54.7677 24.3897 55.0435 24.3139 55.3536 24.3139C55.5371 24.3139 55.7093 24.3406 55.8703 24.3938C56.0325 24.4471 56.1787 24.5252 56.3089 24.6282C56.4391 24.73 56.548 24.8543 56.6356 25.0011C56.7232 25.1467 56.7835 25.313 56.8167 25.5ZM59.3919 25.2727C59.3706 25.0928 59.2842 24.9531 59.1326 24.8537C58.9811 24.7543 58.7953 24.7045 58.5751 24.7045C58.4141 24.7045 58.2733 24.7306 58.1525 24.7827C58.033 24.8348 57.9395 24.9064 57.872 24.9975C57.8057 25.0887 57.7725 25.1922 57.7725 25.3082C57.7725 25.4053 57.7956 25.4888 57.8418 25.5586C57.8891 25.6272 57.9495 25.6847 58.0229 25.7308C58.0963 25.7758 58.1732 25.8131 58.2537 25.8427C58.3342 25.8711 58.4082 25.8942 58.4757 25.9119L58.845 26.0114C58.9397 26.0362 59.045 26.0705 59.161 26.1143C59.2782 26.1581 59.3901 26.2179 59.4966 26.2937C59.6043 26.3683 59.6931 26.4641 59.763 26.5813C59.8328 26.6985 59.8677 26.8423 59.8677 27.0128C59.8677 27.2093 59.8162 27.3868 59.7132 27.5455C59.6114 27.7041 59.4623 27.8301 59.2658 27.9237C59.0705 28.0172 58.8332 28.0639 58.5538 28.0639C58.2934 28.0639 58.0679 28.0219 57.8773 27.9379C57.6879 27.8538 57.5388 27.7366 57.4299 27.5863C57.3221 27.436 57.2612 27.2614 57.247 27.0625H57.7015C57.7134 27.1998 57.7595 27.3134 57.84 27.4034C57.9217 27.4922 58.0247 27.5585 58.149 27.6023C58.2744 27.6449 58.4094 27.6662 58.5538 27.6662C58.7219 27.6662 58.8728 27.639 59.0066 27.5845C59.1403 27.5289 59.2463 27.4519 59.3244 27.3537C59.4025 27.2543 59.4416 27.1383 59.4416 27.0057C59.4416 26.8849 59.4078 26.7867 59.3404 26.7109C59.2729 26.6352 59.1841 26.5736 59.074 26.5263C58.964 26.4789 58.845 26.4375 58.7172 26.402L58.2697 26.2741C57.9856 26.1925 57.7607 26.0759 57.595 25.9244C57.4293 25.7728 57.3464 25.5746 57.3464 25.3295C57.3464 25.1259 57.4015 24.9484 57.5115 24.7969C57.6228 24.6442 57.772 24.5258 57.959 24.4418C58.1472 24.3565 58.3573 24.3139 58.5893 24.3139C58.8237 24.3139 59.032 24.3559 59.2143 24.44C59.3966 24.5228 59.541 24.6365 59.6475 24.7809C59.7553 24.9253 59.8121 25.0893 59.818 25.2727H59.3919ZM62.1883 24.3636V28H61.748V24.3636H62.1883ZM65.8297 24.3636V28H65.4036L63.4221 25.1449H63.3865V28H62.9462V24.3636H63.3723L65.361 27.2259H65.3965V24.3636H65.8297ZM69.512 25.5H69.0716C69.0456 25.3733 69 25.2621 68.9349 25.1662C68.871 25.0703 68.7929 24.9898 68.7006 24.9247C68.6094 24.8584 68.5082 24.8087 68.3969 24.7756C68.2857 24.7424 68.1697 24.7259 68.0489 24.7259C67.8287 24.7259 67.6293 24.7815 67.4506 24.8928C67.273 25.004 67.1315 25.168 67.0262 25.3846C66.922 25.6012 66.8699 25.867 66.8699 26.1818C66.8699 26.4967 66.922 26.7624 67.0262 26.979C67.1315 27.1957 67.273 27.3596 67.4506 27.4709C67.6293 27.5821 67.8287 27.6378 68.0489 27.6378C68.1697 27.6378 68.2857 27.6212 68.3969 27.5881C68.5082 27.5549 68.6094 27.5058 68.7006 27.4407C68.7929 27.3744 68.871 27.2933 68.9349 27.1974C69 27.1004 69.0456 26.9891 69.0716 26.8636H69.512C69.4788 27.0495 69.4185 27.2158 69.3309 27.3626C69.2433 27.5094 69.1344 27.6342 69.0042 27.7372C68.874 27.839 68.7278 27.9165 68.5656 27.9698C68.4046 28.0231 68.2324 28.0497 68.0489 28.0497C67.7388 28.0497 67.463 27.974 67.2215 27.8224C66.98 27.6709 66.79 27.4555 66.6515 27.1761C66.5131 26.8968 66.4438 26.5653 66.4438 26.1818C66.4438 25.7983 66.5131 25.4669 66.6515 25.1875C66.79 24.9081 66.98 24.6927 67.2215 24.5412C67.463 24.3897 67.7388 24.3139 68.0489 24.3139C68.2324 24.3139 68.4046 24.3406 68.5656 24.3938C68.7278 24.4471 68.874 24.5252 69.0042 24.6282C69.1344 24.73 69.2433 24.8543 69.3309 25.0011C69.4185 25.1467 69.4788 25.313 69.512 25.5ZM70.3471 28.0284C70.2595 28.0284 70.1844 27.997 70.1216 27.9343C70.0589 27.8716 70.0275 27.7964 70.0275 27.7088C70.0275 27.6212 70.0589 27.546 70.1216 27.4833C70.1844 27.4206 70.2595 27.3892 70.3471 27.3892C70.4347 27.3892 70.5099 27.4206 70.5726 27.4833C70.6354 27.546 70.6667 27.6212 70.6667 27.7088C70.6667 27.7668 70.6519 27.8201 70.6223 27.8686C70.5939 27.9171 70.5555 27.9562 70.5069 27.9858C70.4596 28.0142 70.4063 28.0284 70.3471 28.0284Z" fill="#777E90"/>
<path d="M18.9375 19V4.45455H22.8864V10.1364H28.1136V4.45455H32.0625V19H28.1136V13.3182H22.8864V19H18.9375ZM33.9375 19V4.45455H37.8864V15.8182H43.767V19H33.9375ZM45.3633 19V4.45455H55.5906V7.63636H49.3121V10.1364H54.9656V13.3182H49.3121V19H45.3633ZM61.0202 4.45455V19H57.0998V4.45455H61.0202ZM63.0178 19V8.09091H66.9382V19H63.0178ZM64.978 6.95455C64.4477 6.95455 63.9931 6.77936 63.6143 6.42898C63.2356 6.0786 63.0462 5.6572 63.0462 5.16477C63.0462 4.67235 63.2356 4.25095 63.6143 3.90057C63.9931 3.55019 64.4477 3.375 64.978 3.375C65.513 3.375 65.9676 3.55019 66.3416 3.90057C66.7204 4.25095 66.9098 4.67235 66.9098 5.16477C66.9098 5.6572 66.7204 6.0786 66.3416 6.42898C65.9676 6.77936 65.513 6.95455 64.978 6.95455ZM74.1914 23.3182C73.0977 23.3182 72.1602 23.1619 71.3789 22.8494C70.6024 22.5417 69.9987 22.1155 69.5678 21.571C69.1417 21.0313 68.9026 20.411 68.8505 19.7102H72.6289C72.6668 19.9422 72.7615 20.1293 72.913 20.2713C73.0645 20.4134 73.2586 20.5152 73.4954 20.5767C73.7369 20.643 74.0067 20.6761 74.305 20.6761C74.8117 20.6761 75.2307 20.553 75.5621 20.3068C75.8983 20.0606 76.0664 19.6155 76.0664 18.9716V17.125H75.9528C75.8107 17.4943 75.5929 17.8092 75.2994 18.0696C75.0058 18.3253 74.6531 18.5218 74.2411 18.6591C73.8292 18.7917 73.377 18.858 72.8846 18.858C72.1081 18.858 71.3931 18.678 70.7397 18.3182C70.091 17.9583 69.5702 17.3878 69.1772 16.6065C68.7889 15.8253 68.5948 14.8049 68.5948 13.5455C68.5948 12.2292 68.7984 11.1591 69.2056 10.3352C69.6175 9.51136 70.1478 8.90767 70.7965 8.52415C71.4499 8.14062 72.1365 7.94886 72.8562 7.94886C73.396 7.94886 73.8694 8.04356 74.2766 8.23295C74.6838 8.41761 75.0247 8.66619 75.2994 8.97869C75.574 9.28646 75.7823 9.625 75.9244 9.99432H76.0096V8.09091H79.93V18.9716C79.93 19.8949 79.6909 20.6785 79.2127 21.3224C78.7392 21.9711 78.0716 22.4659 77.2099 22.8068C76.3481 23.1477 75.342 23.3182 74.1914 23.3182ZM74.3335 16.0739C74.6933 16.0739 75.0011 15.9744 75.2567 15.7756C75.5172 15.572 75.716 15.2831 75.8533 14.9091C75.9954 14.5303 76.0664 14.0758 76.0664 13.5455C76.0664 13.0057 75.9954 12.544 75.8533 12.1605C75.716 11.7723 75.5172 11.4763 75.2567 11.2727C75.0011 11.0644 74.6933 10.9602 74.3335 10.9602C73.9736 10.9602 73.6658 11.0644 73.4102 11.2727C73.1592 11.4763 72.9651 11.7723 72.8278 12.1605C72.6952 12.544 72.6289 13.0057 72.6289 13.5455C72.6289 14.0852 72.6952 14.5445 72.8278 14.9233C72.9651 15.2973 73.1592 15.5838 73.4102 15.7827C73.6658 15.9768 73.9736 16.0739 74.3335 16.0739ZM85.8445 12.8636V19H81.924V4.45455H85.7024V10.1648H85.8161C86.0623 9.46875 86.4718 8.92661 87.0447 8.53835C87.6177 8.14536 88.3066 7.94886 89.1115 7.94886C89.8833 7.94886 90.5533 8.12405 91.1214 8.47443C91.6944 8.82481 92.1371 9.30777 92.4496 9.9233C92.7668 10.5388 92.9231 11.2443 92.9183 12.0398V19H88.9979V12.8636C89.0026 12.3239 88.8677 11.9001 88.593 11.5923C88.3232 11.2846 87.9373 11.1307 87.4354 11.1307C87.1181 11.1307 86.8388 11.2017 86.5973 11.3438C86.3606 11.4811 86.1759 11.6799 86.0433 11.9403C85.9155 12.196 85.8492 12.5038 85.8445 12.8636ZM101.359 8.09091V10.9318H94.1719V8.09091H101.359ZM95.5639 5.47727H99.4844V15.4915C99.4844 15.643 99.5104 15.7708 99.5625 15.875C99.6146 15.9744 99.6951 16.0502 99.804 16.1023C99.9129 16.1496 100.053 16.1733 100.223 16.1733C100.341 16.1733 100.479 16.1591 100.635 16.1307C100.796 16.1023 100.914 16.0786 100.99 16.0597L101.558 18.8153C101.383 18.8674 101.132 18.9313 100.805 19.0071C100.483 19.0829 100.1 19.1326 99.6548 19.1562C98.7552 19.2036 98 19.1113 97.3892 18.8793C96.7784 18.6425 96.3191 18.2708 96.0114 17.7642C95.7036 17.2576 95.5545 16.6231 95.5639 15.8608V5.47727ZM112.814 11.642H109.206C109.187 11.4195 109.109 11.2277 108.971 11.0668C108.834 10.9058 108.656 10.7827 108.439 10.6974C108.225 10.6075 107.989 10.5625 107.728 10.5625C107.392 10.5625 107.103 10.6241 106.862 10.7472C106.62 10.8703 106.502 11.0455 106.507 11.2727C106.502 11.4337 106.571 11.5829 106.713 11.7202C106.859 11.8575 107.141 11.964 107.558 12.0398L109.774 12.4375C110.891 12.6411 111.722 12.9844 112.267 13.4673C112.816 13.9455 113.093 14.5871 113.098 15.392C113.093 16.1686 112.861 16.8433 112.402 17.4162C111.947 17.9844 111.324 18.4247 110.534 18.7372C109.748 19.045 108.85 19.1989 107.842 19.1989C106.175 19.1989 104.871 18.858 103.929 18.1761C102.991 17.4943 102.468 16.5947 102.359 15.4773H106.251C106.303 15.8229 106.474 16.0904 106.762 16.2798C107.056 16.4645 107.425 16.5568 107.87 16.5568C108.23 16.5568 108.526 16.4953 108.758 16.3722C108.995 16.2491 109.116 16.0739 109.12 15.8466C109.116 15.6383 109.011 15.4725 108.808 15.3494C108.609 15.2263 108.297 15.1269 107.87 15.0511L105.939 14.7102C104.826 14.5161 103.993 14.1468 103.439 13.6023C102.885 13.0578 102.61 12.357 102.615 11.5C102.61 10.7424 102.809 10.1009 103.211 9.57528C103.618 9.04498 104.199 8.64252 104.951 8.3679C105.709 8.08854 106.606 7.94886 107.643 7.94886C109.22 7.94886 110.463 8.27557 111.372 8.92898C112.286 9.58239 112.766 10.4867 112.814 11.642Z" fill="#3A423A"/>
<defs>
<linearGradient id="paint0_linear_238_38" x1="6.65135" y1="5" x2="6.65135" y2="29" gradientUnits="userSpaceOnUse">
<stop stop-color="#74EE6F"/>
<stop offset="1" stop-color="#BFF3BD" stop-opacity="0.35"/>
</linearGradient>
<linearGradient id="paint1_linear_238_38" x1="6.65135" y1="5" x2="6.65135" y2="29" gradientUnits="userSpaceOnUse">
<stop stop-color="#74EE6F"/>
<stop offset="1" stop-color="#BFF3BD" stop-opacity="0.35"/>
</linearGradient>
</defs>
</svg>
